<svg viewBox="0 0 64 64" fill="none" xmlns="http://www.w3.org/2000/svg">
   <path
      d="M19.205 30.817v-.695l-.32.695h-2.78l-.373-.695v.695h-5.184l-.587-1.443H8.945l-.641 1.443H5.632v-4.382L7.61 22h3.794l.535 1.282v-1.229h4.595l1.016 2.138 1.015-2.138h14.588s.748 0 1.283.321v-.32h3.687v.48s.641-.48 1.657-.48h6.465l.588 1.282v-1.283h4.169l.748 1.283v-1.283h3.954v8.871h-4.061l-.962-1.55v1.55h-5.077l-.694-1.603h-1.016l-.694 1.603h-3.046s-1.122 0-1.977-.641v.641h-6.253V28.84c0-.32-.213-.267-.213-.267h-.214v2.351h-12.29v-.107zM16.16 32.74h8.015l1.175 1.336 1.176-1.336h6.146s.587 0 1.122.32v-.32h5.504c.694 0 1.282.374 1.282.374v-.374h7.054v.32s.48-.32 1.176-.32h4.595v.32s.588-.32 1.176-.32h3.634v8.337s-.481.534-1.443.534h-4.756v-.267s-.428.267-1.122.267H38.229v-2.138c0-.213-.107-.267-.267-.267h-.16v2.405h-3.955v-2.405s-.427.214-1.175.214h-1.443v2.137h-4.863l-1.122-1.336-1.176 1.336h-7.909V32.74z"
      fill="#fff"></path>
   <path
      d="M41.435 34.076h5.077v1.336h-3.527v1.176h3.42v1.175h-3.42v1.23h3.527v1.335h-5.077v-6.252zm14.802 2.404c1.87.108 2.031 1.07 2.031 2.032 0 1.175-.962 1.816-1.977 1.816h-3.26v-1.336h2.512c.427 0 1.069 0 1.069-.587 0-.268-.107-.481-.588-.535-.214-.053-.962-.053-1.07-.053-1.71-.054-2.083-.909-2.083-1.924 0-1.176.801-1.817 1.817-1.817h3.26v1.336h-2.352c-.534 0-1.122-.053-1.122.535 0 .373.267.48.641.48.16.054 1.015.054 1.122.054zm-5.824 0c1.87.108 2.03 1.07 2.03 2.032 0 1.175-.962 1.816-1.977 1.816h-3.26v-1.336h2.512c.427 0 1.069 0 1.069-.587 0-.268-.107-.481-.588-.535-.214-.053-.962-.053-1.069-.053-1.71-.054-2.084-.909-2.084-1.924 0-1.176.802-1.817 1.817-1.817h3.26v1.336H49.77c-.534 0-1.122-.053-1.122.535 0 .373.267.48.642.48.16.054 1.015.054 1.122.054zm-18.276-2.404H26.74L24.976 36l-1.71-1.977h-6.091v6.252h5.878l1.87-2.084 1.817 2.084h2.939v-2.137h2.084c.802 0 2.244-.054 2.244-2.245 0-1.443-1.068-1.817-1.87-1.817zm-9.832 4.917h-3.527v-1.23h3.42v-1.175h-3.42v-1.176h3.74l1.497 1.71-1.71 1.87zm5.878.748l-2.191-2.619 2.19-2.458v5.077zm3.473-2.832h-1.924v-1.497h1.924c.641 0 .855.428.855.695 0 .48-.214.802-.855.802zm7.962.588c.855-.427 1.069-.962 1.069-1.71 0-1.335-1.069-1.656-1.87-1.656h-4.008v6.252h1.55v-2.19h2.03c.534 0 .748.534.748 1.068l.054 1.175h1.496l-.053-1.282c0-1.122-.321-1.603-1.016-1.657zm-1.336-.64H36.36v-1.444h1.923c.642 0 .855.428.855.695 0 .481-.214.748-.855.748zM37 23.229h-1.55v6.306H37v-6.306zm-14.161 0h5.023v1.336h-3.527v1.176h3.42v1.229h-3.42v1.229h3.527v1.336H22.84v-6.306zm10.741 3.42c.855-.428 1.069-.962 1.069-1.71 0-1.336-1.07-1.657-1.87-1.657H28.77v6.252h1.55v-2.19h2.03c.535 0 .749.534.749 1.068l.053 1.176h1.497l-.054-1.283c-.053-1.068-.32-1.55-1.015-1.656zm-1.336-.641H30.32v-1.443h1.924c.641 0 .855.427.855.694 0 .481-.214.749-.855.749zm-12.985-2.779l-1.87 4.222-1.871-4.222h-2.405v6.038l-2.672-6.038h-2.03l-2.726 6.252H7.29l.587-1.39h3.1l.587 1.39h3.1v-4.649l2.084 4.65h1.39l2.083-4.596v4.595h1.55V23.23H19.26zM8.41 26.756l.908-2.191.962 2.19H8.41zm44.46-3.527v4.328l-2.618-4.328h-2.297v5.878l-2.619-5.878h-2.03l-2.138 4.862h-.962c-.374-.053-.962-.32-.962-1.443v-.48c0-1.497.802-1.604 1.817-1.604h.962v-1.389h-2.03c-.695 0-2.245.534-2.298 3.1-.054 1.71.694 3.152 2.404 3.152h2.03l.589-1.39h3.1l.587 1.39h3.046v-4.595l2.779 4.595h2.084v-6.305H52.87v.107zm-9.458 3.526l.909-2.19.962 2.19h-1.87z"
      fill="#0078A9"></path>
</svg>