<svg xmlns="http://www.w3.org/2000/svg" viewBox="0 0 115 22"><g fill="none"><path d="M84.575 1.946c-1.133 0-2.202.373-3.207 1.118v6.787c1.02.779 2.074 1.167 3.16 1.167 2.202 0 3.303-1.508 3.303-4.524 0-3.032-1.085-4.548-3.256-4.548zM81.2 1.629A6.702 6.702 0 0183.14.413 5.601 5.601 0 0185.246 0c.766 0 1.46.145 2.082.438a4.29 4.29 0 011.58 1.264c.431.552.762 1.22.994 2.007.23.787.347 1.675.347 2.664 0 1.005-.124 1.914-.371 2.724-.247.812-.595 1.502-1.041 2.068a4.692 4.692 0 01-1.627 1.327c-.639.317-1.348.475-2.13.475-1.435 0-2.672-.479-3.711-1.436v5.691c0 .325-.16.487-.48.487h-1.412c-.317 0-.477-.162-.477-.487V.851c0-.324.16-.487.479-.487h1.053c.32 0 .503.163.552.487l.119.778H81.2zm15.033 9.56c.526 0 1.077-.105 1.651-.316a6.208 6.208 0 001.652-.924V7.468c-.4-.098-.818-.175-1.257-.232-.44-.056-.867-.085-1.281-.085-1.805 0-2.705.705-2.705 2.116 0 .617.166 1.091.502 1.423.335.333.812.5 1.437.5h.001zM93.432 2.48l-.18.062a.62.62 0 01-.201.037c-.206 0-.311-.147-.311-.44v-.656c0-.226.032-.385.097-.474.064-.09.192-.174.384-.255.51-.227 1.141-.41 1.891-.548.75-.137 1.5-.206 2.252-.206 1.516 0 2.633.316 3.35.948.72.632 1.078 1.614 1.078 2.943v8.32c0 .324-.16.486-.479.486h-1.029c-.303 0-.479-.154-.527-.462l-.12-.803a6.538 6.538 0 01-1.901 1.168 5.573 5.573 0 01-2.07.413c-1.15 0-2.06-.328-2.728-.985-.671-.657-1.007-1.536-1.007-2.64 0-1.183.416-2.128 1.245-2.833.83-.705 1.948-1.058 3.351-1.058.895 0 1.9.138 3.017.414V4.305c0-.876-.191-1.492-.575-1.848-.382-.357-1.053-.536-2.01-.536-1.117 0-2.29.187-3.518.56h-.01zm16.133 12.382c-.43 1.119-.93 1.922-1.496 2.408-.566.487-1.304.73-2.214.73-.511 0-.966-.058-1.364-.17-.176-.049-.304-.127-.383-.232-.081-.106-.121-.27-.121-.498v-.633c0-.308.119-.462.357-.462.08 0 .198.016.358.049.16.032.374.049.645.049.606 0 1.077-.146 1.413-.438.333-.291.636-.827.909-1.606l.455-1.24-4.616-11.578c-.112-.275-.167-.47-.167-.583 0-.194.111-.292.335-.292h1.437c.256 0 .43.04.527.121.095.082.192.26.287.536l3.351 9.438 3.232-9.44c.097-.275.192-.454.287-.535.097-.08.273-.122.528-.122h1.34c.224 0 .335.098.335.292 0 .114-.057.308-.168.584l-5.267 13.622z" fill="#333E48"></path><path d="M44.69 17.182C40.49 20.327 34.398 22 29.153 22 21.8 22 15.18 19.244 10.17 14.655c-.393-.36-.043-.852.43-.573 5.406 3.19 12.09 5.112 18.994 5.112 4.655 0 9.775-.98 14.486-3.008.71-.305 1.306.475.61.996" fill="#F90"></path><path d="M47.114 14.873c-.523-.68-3.456-.322-4.774-.162-.401.049-.463-.305-.102-.562 2.34-1.667 6.174-1.186 6.62-.628.448.564-.118 4.467-2.312 6.33-.337.287-.66.135-.509-.245.493-1.25 1.598-4.05 1.074-4.73" fill="#F90"></path><path d="M42.197 2.306V.638a.41.41 0 01.42-.422l7.427-.001c.237 0 .428.174.428.42v1.432c-.002.24-.203.553-.559 1.05l-3.847 5.53c1.428-.034 2.938.182 4.236.916.292.165.37.41.394.65v1.78c0 .245-.267.528-.547.381-2.286-1.206-5.32-1.337-7.847.015-.258.136-.529-.143-.529-.39v-1.69c0-.272.006-.735.277-1.148l4.457-6.439-3.88-.002a.413.413 0 01-.43-.419v.005zm-27.09 10.419h-2.26a.427.427 0 01-.404-.385L12.445.666c0-.234.195-.419.436-.419h2.104c.22.011.397.18.41.393v1.523h.043C15.986.69 17.02 0 18.412 0c1.412 0 2.298.688 2.93 2.162C21.892.688 23.136 0 24.463 0c.95 0 1.983.393 2.616 1.278.717.982.57 2.407.57 3.66l-.002 7.368c0 .233-.195.42-.436.42h-2.256a.425.425 0 01-.405-.42l-.002-6.189c0-.49.042-1.717-.064-2.185-.17-.785-.676-1.006-1.328-1.006-.548 0-1.118.368-1.35.958-.232.59-.212 1.573-.212 2.237v6.187a.428.428 0 01-.436.421h-2.254a.425.425 0 01-.406-.419l-.002-6.189c0-1.3.211-3.217-1.392-3.217-1.624 0-1.56 1.866-1.56 3.217l-.002 6.187a.428.428 0 01-.436.421l.001-.004zM56.885 2.386c-1.666 0-1.772 2.285-1.772 3.71 0 1.426-.021 4.473 1.75 4.473 1.751 0 1.835-2.459 1.835-3.957 0-.982-.042-2.162-.338-3.096-.254-.812-.76-1.13-1.476-1.13zM56.866 0c3.353 0 5.166 2.9 5.166 6.584 0 3.562-2.003 6.388-5.166 6.388-3.29 0-5.084-2.9-5.084-6.51C51.782 2.826 53.596 0 56.866 0zm9.515 12.726h-2.25a.425.425 0 01-.406-.42L63.721.629a.428.428 0 01.434-.382h2.096c.196.012.36.147.4.328V2.36h.042C67.327.761 68.213 0 69.773 0c1.012 0 2.004.368 2.637 1.376.59.933.59 2.505.59 3.636v7.347a.43.43 0 01-.433.368h-2.264a.424.424 0 01-.402-.366V6.02c0-1.278.148-3.146-1.413-3.146-.549 0-1.055.369-1.308.934-.316.712-.359 1.425-.359 2.212v6.286a.433.433 0 01-.44.42v-.001zm-27.827.083a.466.466 0 01-.534.053c-.75-.629-.884-.918-1.295-1.516-1.24 1.27-2.118 1.653-3.725 1.653-1.902 0-3.381-1.182-3.381-3.546 0-1.848.991-3.103 2.407-3.719 1.226-.542 2.938-.64 4.248-.79v-.293c0-.542.042-1.18-.276-1.649-.276-.419-.804-.59-1.268-.59-.862 0-1.628.443-1.816 1.365-.04.203-.188.407-.394.419l-2.19-.24c-.186-.042-.39-.191-.338-.477C30.501.807 32.901 0 35.05 0c1.1 0 2.537.295 3.404 1.133 1.1 1.033.993 2.412.993 3.915V8.59c0 1.066.44 1.534.853 2.108.144.207.176.453-.008.605-.46.39-1.28 1.107-1.731 1.512l-.006-.004v-.003zm-2.277-5.545v-.493c-1.635 0-3.36.35-3.36 2.29 0 .984.506 1.648 1.373 1.648.634 0 1.205-.394 1.564-1.035.444-.789.423-1.526.423-2.414v.004zM8.936 12.81a.465.465 0 01-.534.052c-.75-.628-.885-.918-1.295-1.516C5.867 12.618 4.988 13 3.382 13 1.48 13 0 11.818 0 9.455c0-1.847.993-3.103 2.41-3.718 1.225-.542 2.937-.64 4.247-.788v-.296c0-.542.043-1.181-.274-1.649-.275-.419-.804-.591-1.268-.591-.862 0-1.628.444-1.816 1.366-.04.205-.188.408-.393.418l-2.19-.239c-.185-.042-.39-.19-.337-.476C.882.808 3.281 0 5.432 0 6.53 0 7.968.295 8.835 1.133c1.099 1.033.993 2.412.993 3.915V8.59c0 1.066.44 1.534.853 2.108.144.207.177.453-.007.605-.46.39-1.282 1.107-1.732 1.512l-.004-.004-.002-.002zM6.658 7.263v-.492c-1.634 0-3.36.352-3.36 2.29 0 .984.507 1.65 1.373 1.65.634 0 1.205-.395 1.564-1.035.444-.788.423-1.526.423-2.413z" fill="#333E48"></path></g></svg>