<svg xmlns="http://www.w3.org/2000/svg" viewBox="0 0 174 28"><g fill="none" fill-rule="evenodd"><path d="M99.84 21.3c-.91 0-1.66-.24-2.18-.64l.73-3.88c.63-3.4 2.72-5.45 4.3-5.45 1.67 0 2.19 1.5 2.19 2.85 0 2.88-2.07 7.11-5.04 7.11zM103 10.43c-1.5 0-2.9.96-3.9 2.51h-.05l.35-2.27h-.96a77.8 77.8 0 01-.64 3.87l-2.24 12h1l.9-4.86h.04c.42.24 1.15.5 2.25.5 3.58 0 6.18-4.28 6.18-8.09 0-1.85-.8-3.66-2.93-3.66zm10.82.9c.7 0 1.1.06 1.36.16l-.8 4.13c-.54 2.91-2.6 5.66-4.42 5.66-1.53 0-1.95-1.31-1.92-2.8.02-3.54 2.55-7.16 5.78-7.16zm-4.1 10.84c1.48 0 2.9-.77 4.2-3.26h.04a22.7 22.7 0 00-.28 3.03h.98c-.05-1.2.1-3 .5-5.12l1.19-6.06a7.4 7.4 0 00-2.27-.33c-4.36 0-7.1 4.46-7.1 8.31 0 2.02 1.03 3.43 2.74 3.43zm5.88 4.84c.54-.14 1.6-.6 2.64-1.67 1.55-1.48 2.6-3.47 3.6-5.68l4.2-9h-1.08l-3.2 7.05a53.27 53.27 0 00-1.27 2.84h-.05a39.15 39.15 0 00-.47-3.07l-1.12-6.81h-1.03l1.85 10.73c.02.21.05.35-.07.56a9.64 9.64 0 01-2.27 2.96 7.55 7.55 0 01-2.04 1.2l.3.9zm24.2-13.64c0 .54-.05 1.08-.16 1.62l-1.3 6.95h1l1.31-6.93c.12-.63.18-1.26.19-1.9 0-1.9-1.34-2.68-2.44-2.68-1.54.03-2.88.87-3.86 2.56-.07-1.5-.82-2.56-2.36-2.56-1.34 0-2.65.8-3.68 2.42h-.05l.3-2.18h-.93a33.1 33.1 0 01-.51 3.3l-1.48 7.97h1l1.16-6.18c.42-2.37 2.36-4.41 3.81-4.41 1.5 0 1.78.98 1.78 1.97 0 .54-.05.99-.16 1.55l-1.34 7.07h1l1.18-6.3c.47-2.53 2.3-4.3 3.8-4.3 1.28 0 1.75.78 1.75 2.03zm9.7-.43c0 2.24-2.8 2.73-5.74 2.7.7-2.44 2.25-4.32 3.99-4.32 1.05 0 1.75.57 1.75 1.6v.02zm-1.57-2.5c-3.2 0-5.48 4.24-5.48 7.48 0 2.16.92 4.23 3.54 4.23 1.4 0 2.48-.45 3.07-.85l-.3-.8c-.52.31-1.37.76-2.6.76-1.2 0-2.07-.64-2.47-1.9a7.82 7.82 0 01-.09-2.82c3.68.02 6.96-.78 6.96-3.64 0-1.27-.78-2.47-2.63-2.47zm5.3 5.51c.49-2.73 2.62-4.6 4.12-4.6 1.38 0 1.84.84 1.84 2.02 0 .58-.06 1.13-.16 1.64l-1.3 6.93h1l1.28-6.93c.12-.61.22-1.17.22-1.74 0-2.13-1.4-2.84-2.5-2.84-1.55 0-2.96.9-3.94 2.54h-.05l.33-2.3h-.96a39.3 39.3 0 01-.5 3.3l-1.5 7.97h1.01l1.1-5.99zm9.62 2.3a9.39 9.39 0 00-.26 2.07c0 .94.51 1.83 1.85 1.83.37 0 .74-.06 1.1-.16l-.07-.82c-.21.07-.44.09-.82.09-.7 0-1-.4-1-1.06 0-.6.09-1.2.23-1.95l1.24-6.72h2.64l.2-.86h-2.65l.49-2.47-1.13.45-.37 2.02h-1.64l-.16.86h1.61l-1.26 6.72zm7.63-1.83c1.05.68 1.52 1.36 1.52 2.49 0 1.3-1 2.35-2.48 2.35-.82 0-1.57-.33-1.97-.64l-.4.85c.38.3 1.27.68 2.28.68 1.94 0 3.6-1.25 3.6-3.52 0-1.15-.65-2.19-1.73-2.92-.91-.63-1.52-1.21-1.52-2.27 0-1.15.91-2.12 2.27-2.12.66 0 1.24.26 1.6.47l.37-.87a3.38 3.38 0 00-1.85-.49c-2 0-3.42 1.43-3.42 3.2 0 1.05.6 2.06 1.73 2.79z" fill="#0A0A08"></path><path d="M32.67 15c-.82-.43-1.23-.81-1.23-1.32 0-.64.58-1.06 1.5-1.06 1.05 0 2 .44 2 .44l.73-2.27s-.68-.53-2.68-.53c-2.8 0-4.74 1.6-4.74 3.85 0 1.29.9 2.25 2.11 2.95.98.55 1.32.95 1.32 1.53 0 .6-.49 1.1-1.4 1.1-1.34 0-2.62-.7-2.62-.7l-.8 2.27a6 6 0 003.16.79c2.87 0 4.95-1.42 4.95-3.97-.02-1.38-1.06-2.36-2.3-3.08zm11.45-4.78c-1.42 0-2.54.68-3.39 1.7l-.03-.02 1.22-6.42h-3.19l-3.12 16.36h3.2l1.06-5.6c.41-2.1 1.5-3.41 2.53-3.41.71 0 1 .49 1 1.19 0 .43-.04.98-.13 1.42l-1.21 6.4h3.19l1.25-6.61c.13-.7.22-1.53.22-2.1.02-1.81-.92-2.9-2.6-2.9zm9.86 0c-3.86 0-6.4 3.48-6.4 7.35 0 2.48 1.52 4.48 4.4 4.48 3.77 0 6.33-3.38 6.33-7.35.01-2.29-1.33-4.48-4.33-4.48zm-1.57 9.4c-1.1 0-1.55-.93-1.55-2.1 0-1.84.95-4.82 2.68-4.82 1.14 0 1.52.98 1.52 1.92 0 1.97-.97 5-2.65 5zm14.09-9.4c-2.15 0-3.38 1.91-3.38 1.91h-.03l.18-1.72h-2.83c-.13 1.15-.4 2.93-.64 4.25l-2.23 11.72h3.2l.88-4.75h.07s.67.42 1.88.42c3.76 0 6.21-3.86 6.21-7.75 0-2.15-.96-4.08-3.3-4.08zm-3.06 9.43c-.83 0-1.32-.47-1.32-.47l.53-2.99c.38-2 1.42-3.32 2.53-3.32.98 0 1.29.9 1.29 1.75 0 2.08-1.23 5.03-3.03 5.03zM74.38 5.63c-1.02 0-1.83.81-1.83 1.85 0 .95.6 1.6 1.51 1.6h.04c1 0 1.85-.67 1.87-1.84 0-.93-.62-1.61-1.59-1.61zM69.9 21.82h3.2l2.17-11.33h-3.21zm13.51-11.35h-2.23l.12-.53c.19-1.1.83-2.06 1.9-2.06.57 0 1.03.17 1.03.17l.62-2.51s-.55-.29-1.74-.29c-1.13 0-2.27.32-3.13 1.06a5.97 5.97 0 00-1.86 3.63l-.09.53h-1.5l-.47 2.42h1.5l-1.7 8.95h3.19l1.7-8.95h2.21l.45-2.42zm7.71.02s-2 5.04-2.89 7.8h-.04c-.05-.89-.79-7.8-.79-7.8h-3.36l1.93 10.4c.03.23.01.38-.08.54a5.6 5.6 0 01-1.74 1.92c-.6.44-1.28.72-1.81.9l.89 2.73c.64-.13 2-.68 3.13-1.74 1.46-1.36 2.82-3.47 4.2-6.35l3.9-8.4h-3.34z" fill="#000"></path><path d="M20.3 5.12a.24.24 0 00-.24-.2l-1.96-.05s-1.57-1.5-1.72-1.68c-.15-.15-.45-.11-.57-.07l-.79.24c-.08-.26-.2-.58-.38-.92C14.1 1.38 13.26.8 12.28.8c-.07 0-.13 0-.2.02l-.1-.1a2.1 2.1 0 00-1.65-.65C9.07.1 7.8 1.04 6.76 2.66a10.65 10.65 0 00-1.43 3.7l-2.51.78c-.74.23-.76.25-.86.95C1.93 8.62 0 23.52 0 23.52l16.17 2.8 7.01-1.74c-.02 0-2.87-19.33-2.89-19.46zm-6.1-1.5l-1.24.4c0-.64-.1-1.54-.38-2.3.97.15 1.44 1.25 1.63 1.9zm-2.09.65l-2.7.83c.26-1 .75-1.98 1.36-2.64.23-.25.55-.51.9-.67.38.74.46 1.78.44 2.48zM10.37.93c.3 0 .55.05.76.2-.34.17-.68.44-.98.78a7.36 7.36 0 00-1.69 3.51c-.77.25-1.53.47-2.2.68C6.7 4.04 8.42.98 10.36.93z" fill="#95BF47"></path><path d="M20.06 4.91l-1.96-.04s-1.57-1.5-1.72-1.68a.3.3 0 00-.2-.1v23.23l7-1.74-2.87-19.46a.27.27 0 00-.25-.2z" fill="#5E8E3E"></path><path d="M12.28 8.52l-.81 3.04s-.9-.41-1.99-.34c-1.58.1-1.58 1.1-1.58 1.34.1 1.36 3.66 1.67 3.87 4.86.15 2.51-1.32 4.23-3.48 4.36-2.57.14-3.98-1.38-3.98-1.38l.55-2.32s1.43 1.08 2.57 1a1 1 0 00.98-1.07c-.12-1.78-3.03-1.67-3.21-4.6-.16-2.45 1.45-4.93 5-5.15 1.38-.1 2.08.26 2.08.26z" fill="#FFF"></path></g></svg>