<svg id="Layer_1" data-name="Layer 1" xmlns="http://www.w3.org/2000/svg" viewBox="0 0 238.98 241.24"><defs><style>.cls-1{fill:#aed24b;fill-rule:evenodd;}</style></defs><title>logo - ring (traced less simple)</title><path class="cls-1" d="M55.64,26.07c-2.43.76-4.77,2.66-7.56,4.33-.76.53-2.4.3-3.2,1.79-.06,0-.13,0-.25.1a1.41,1.41,0,0,1-.65.32,2.68,2.68,0,0,1-1.14-.42c-.1,0-.14.14-.29.14-.37.13-.52,0-.74.22s-.3.74-.54.94A12.12,12.12,0,0,1,40,34.59a13.25,13.25,0,0,1-2.87,2.91,1.15,1.15,0,0,0-.15.35,3.79,3.79,0,0,1,0,.62,8.58,8.58,0,0,1-.58,1.67,6.9,6.9,0,0,1-2.27,3.77l0,0c-.31.42-.14.62-.48,1s-.45.1-.8.37a31.23,31.23,0,0,1-3.41,4,18.79,18.79,0,0,0-.89,2.26h0a1.34,1.34,0,0,1-.84.5c-.07.06-.07.09-.08.19a1.64,1.64,0,0,1-.88,1.64c-1.49,4.12-4.59,7.61-6.43,12.85a19.76,19.76,0,0,1-.85,2.43.6.6,0,0,0,.09.57.57.57,0,0,0,.33.23,2.25,2.25,0,0,1,.33-.19c.31-.15.44-.19.64-.27a1.39,1.39,0,0,0,.5-.46,10.23,10.23,0,0,1,.88-2.16c.32-.36.38-.47.8-.9s.66-.45.75-.69a.87.87,0,0,0,0-.57c0-.11,0-.11.08-.2s.14-.19.25-.39,0-.11.08-.18a.89.89,0,0,1,.25-.26c.09-.2.87-.23.54-1,1.18-2,3-4.52,4.78-7A8.6,8.6,0,0,1,31.15,54c.58-.59,1.13-.77,1.22-1.1.13,0-.2-.63.4-.76,2-1.41,3.25-4.74,6.17-6A3.77,3.77,0,0,0,39.76,45a1.51,1.51,0,0,1,.93-.63c.22-.07.29-.16.5-.42a1.36,1.36,0,0,1,.47-.81,5.1,5.1,0,0,1,1.18-.53c.18-.05.23,0,.35-.09A3.51,3.51,0,0,1,44.47,41a56.85,56.85,0,0,0,5.93-5.12c.46-.42,1.1-.72,2-1.38.45-.49.48-.81,1-1.37.75-.67,1.21-.83,1.8-1.44a5.51,5.51,0,0,0,1.08-1.92,6.25,6.25,0,0,1,.51-1.14c.21-.43.34-.4.45-.84a.91.91,0,0,0-.14-.52C56.69,27,56.6,26.49,55.64,26.07ZM97,4.24a2.94,2.94,0,0,0,1.22-.85c.41-.27.55-.33.89-.52.27,0,.21.23.67.31.77-.12.95-.68,1.76-1,.47,0,.47.43,1,.52,1.39-.08,1.46-.47,3.12-.77.75-.13,1.09.09,1.4,0s-.06-.46.28-.9a1.67,1.67,0,0,1,1-.23c.63-.22.75-.39,1.09-.5a1.14,1.14,0,0,1,.5.05,6.38,6.38,0,0,1,1.63-.16A8.5,8.5,0,0,0,113,.18c1.34.2,1.38.39,2.52.55A2.7,2.7,0,0,0,116.88.5a1.87,1.87,0,0,1,1.28.46c.14-.11.41-.29.59-.23s.29.3.49.58a2,2,0,0,1,.33.47c-.09.18-.37,0-.45.11a.77.77,0,0,0,.16.54c.14.16.42,0,.78-.16.11,0,.23,0,.24,0,.09.31.09.56,0,.68s-.49.22-.7.34c-.3.5-.15.5-.15,1s-.22.65-.14,1.3a2.08,2.08,0,0,0,.46,1.26c-.44-.17-2.48.51-3.71.2a12.68,12.68,0,0,0-1.85.26,7.6,7.6,0,0,1-1.19.09,4.31,4.31,0,0,0-3.18,0c-.23,0-.93-.4-1.33-.39s-.66.61-.85.87a.55.55,0,0,0-.18-.38c-.19-.11-.44,0-.75-.15a.77.77,0,0,0-1.26.27c-1.22.06-1.5,0-3.11,0a1.58,1.58,0,0,0-1-.14,3,3,0,0,1-1,0,2.32,2.32,0,0,0-.8-.35c-.47,0-.41.3-.89.45-.32,0-.38-.14-.83-.25a1.53,1.53,0,0,0-.47-.07s0,0,0-.06a.62.62,0,0,0,.12-.51c0-.2-.22-.33-.6-.54a.88.88,0,0,1-.52-.92A1.13,1.13,0,0,1,97,4.24ZM121.13,6.5a.63.63,0,0,1,.64,0,.6.6,0,0,1,0,.37c-.08.06-.27.11-.77-.13A.21.21,0,0,1,121.13,6.5Zm26.8-1.09a1.1,1.1,0,0,1,.78-.26c.47.16.47.33.75.7a.62.62,0,0,1,.31.72c0,.21-.07.14,0,.41a.89.89,0,0,0,.42,0,1.39,1.39,0,0,1,1.09-.72c.43,0,.72.06,1.36,0,.27,0,.24-.28.43-.16s.07.42.48.39a1.27,1.27,0,0,1,.82.08,1.19,1.19,0,0,0,.93.14,2,2,0,0,0,.11.41c.57.08.67.21.84.47s.06.25.25.47.18.17.32.19.09.38.36.5c.46.19.65,0,1.09.09a2.34,2.34,0,0,1,.74.32,1.19,1.19,0,0,1,.16.2,8.79,8.79,0,0,1,.89,0c.24.25.16.39.39.51a.67.67,0,0,0,.53-.09.94.94,0,0,1,.56.19.66.66,0,0,1,.08.49,6.09,6.09,0,0,0,.45.68.55.55,0,0,1,.57.16c.22.33.22.53.31.61.36.16.3-.06.55-.16.09-.12.33,0,.4-.2s-.18-.47-.12-.67c.27-.3,1-.1,1.09.87a1.07,1.07,0,0,0,.27.35.4.4,0,0,1,.42.1.48.48,0,0,1,.09.39c.4.3,1.1.1,1.45.26a5.44,5.44,0,0,1,3.6.73,3.37,3.37,0,0,0,1.39.34.51.51,0,0,1,.32.51c.14.4.42.25.7.35a6.88,6.88,0,0,0,1.49.78c.28.24.39.08.94.93.3.23.59.05.84.11s.2.33.2.48.19.58.71.7c.84.15.84-.2,1.18-.29a3,3,0,0,1,1.68-.32,5,5,0,0,1,2.3,1,2.1,2.1,0,0,1,1,.28,11.79,11.79,0,0,0,1.1.59,4.37,4.37,0,0,1,1.42.54c.58.44.58.72.93,1a2.21,2.21,0,0,1,2,.66.85.85,0,0,0,.77.2c.18.31.07.44,1.08,1,.22.24.09.4.17.53a32.43,32.43,0,0,1,3,1.47c1,3-2.38,1.78-4.34,3.6-.49-.17-.33-.46-.76-.88s-.89,0-1.5-.33c-.79-.31-.62-.71-1.35-.77s-.82.46-1.34.55c-.35-.06-.44-.55-1.18-.77a7.63,7.63,0,0,0-.71-.52c-1.6-1.17-1.43-1.26-3.13-2.54a24.75,24.75,0,0,0-2.36-1.3c-.82-.53-.76-.53-1.62-1a14.13,14.13,0,0,1-1.64-.85,3.24,3.24,0,0,1-.58-.6,3.8,3.8,0,0,1-1.61-.72,5.28,5.28,0,0,0-1.27-.71c-.43-.36-.19-.74-.69-.82a2.72,2.72,0,0,0-1.32-.64c-.16,0-.33.11-.42.06s-.06-.25-.06-.36a4.58,4.58,0,0,1-.38-.36c-.24,0-.44-.17-.75-.21s-.37.33-.43.33c-.66-.45-.77-1-1.48-1.15-.5.09-.55.39-1,.72,0,.07-1.19.21-.72-.77-.09-.33-.22-.46-.61-.37-.65.48-.81.48-1.28.37a1.72,1.72,0,0,1-.64-.41.91.91,0,0,1-1-.16,2.56,2.56,0,0,1-.26-.31s-.07,0-.1-.06a.3.3,0,0,1,0-.3,1.14,1.14,0,0,0-.52,0c-.21-.36-.47-.36-.92-.36-.46.15-.43.34-.83.36a3.75,3.75,0,0,0-1.4-.48c-.47,0-1,.37-1.63,0-.81-.32-.81-1-1.07-1.07s-.75.09-1.15-.2-.1-.52-.06-.76c-.18-.19,0-.25-.41-.94-.1,0-.24.26-.37.25s-.14-.14-.14-.29.46,0,.51-.18.1-.45-.09-.87c-.15-.23-.33-.26-.53-.53s-.06-.2-.06-.33c-.23.09-.35.06-.45-.07s-.09-.43-.35-.51-.31-.07-.46.24-.14.34-.23.43a2.17,2.17,0,0,0-.32-.77c-.3-.41-.62-.23-.93-.23s-.28,0-.35-.12a1.8,1.8,0,0,0,0-.75A.66.66,0,0,1,147.93,5.41Zm49.5,28.8c.26.12.44.08.69.36a2.12,2.12,0,0,0,.53,1,3,3,0,0,0,1.09.62c.18.07.24,0,.43.14s-.08.25,0,.48a.75.75,0,0,0,.33.48c.15.16.23.13.42.32s.44.33.54.64-.15.31-.37.35a1.14,1.14,0,0,1-.62-.17c-.08,0-.08-.05-.12-.12a1.14,1.14,0,0,0-.3-.54,1.69,1.69,0,0,0-.6-.41,5,5,0,0,1-.8-.38c-.4-.27-.44-1-1.33-2a2.27,2.27,0,0,0-.21-.2A.64.64,0,0,1,197.43,34.21Zm32.08,49.23c-.26.55-.42.72-.56,1,.24.15.3.08.46.12s.34,0,.4.22a1.59,1.59,0,0,1-.19.46c.17,0,.32,0,.42,0a.78.78,0,0,0,0-.5C229.79,84,229.69,84,229.51,83.44Zm1.9,6a2,2,0,0,0,.58-.2.66.66,0,0,1,.31-.06c.13.07.13.15.19.33v.31s.07.1.16.17.21-.07.34,0,.31.09.35.34a4,4,0,0,1,0,.49.64.64,0,0,0,.08.3c0,.1.13.1.1.17s-.13.12-.26.22-.15.14-.27.17-.17-.06-.31-.19-.14-.18-.29-.37a1.76,1.76,0,0,1-.4-.53,1,1,0,0,1-.13-.7A.84.84,0,0,0,231.41,89.48Zm5.53,25.67c.11-.1.8-.1,1.22.66a4.36,4.36,0,0,1,.06,2.26c.07.31-.53.57-.11,1.87a2.62,2.62,0,0,0-.29,1.5c.11.92.25,1.64.26,2.29s-.17.71-.06,1.12a1.35,1.35,0,0,0,.55.79c0,.21-.19.12-.12.79.35,1.36,1.1,1.59,1,2.7-.05.48-.53.94-.68,1.17s0,.32-.7.68a.88.88,0,0,0-.75.45c-.06.56.66,1.39,1,2.48a2.6,2.6,0,0,0,.8.63c.05.16,0,.23,0,.46a5.67,5.67,0,0,1,.22,2.11,6,6,0,0,1-.7,1.95c-.22.93-.1,1.18-.23,1.88s-.23.57-.37,1.39-.09,1-.17,1.64a11,11,0,0,1-.19,1.32,6.44,6.44,0,0,1-.72,1.57c-.06.64-1.58,1.26-.71,2.29.14.2.24.24.24.43s-.19.29-.38.4a1.18,1.18,0,0,1,0,.69,3.46,3.46,0,0,1-.85,1.16,2.2,2.2,0,0,0-.71,2c.1.29.29.39.29.84a14.08,14.08,0,0,0-.82,2.33c-.25.67-.32.71-.59,1.34a8.44,8.44,0,0,0-.33,1.63c-.06.4-.06.77-.08,1a1.55,1.55,0,0,0-.33.54c-.28.55-.21,1.68-.61,2.9a4,4,0,0,1-.81,1.58c-.15.56,0,.79,0,1.13s-.28.1-.5.7a15.81,15.81,0,0,0-.19,2.14,8.27,8.27,0,0,1-1,1.76c-.71,1.15-.92,2.22-1.94,3.71a3.28,3.28,0,0,1-1.27,1.69.47.47,0,0,0,0,.44c.07.18.17.29.1.49s-.24.15-.58.51c-.61,1.2-.81,1.34-1.86,3.18l0,0c-.32.38-.79.53-.79.83s.14.31.14.48a.32.32,0,0,1,0,.27c-.15.24-.19.14-.42.47-.51.63-.37,1.55-1.3,2.53-.26,1.88-2.24,3-3.42,5.31-.64.88-.79.91-1.38,1.73a31.56,31.56,0,0,0-1.72,2.8,1.81,1.81,0,0,0,0,.74c-.48.35-.63.3-1.64,1a11.85,11.85,0,0,0-1.11,1c-.26.25-.26.3-.47.52a5.92,5.92,0,0,1-.37,1.23c-.23.37-.37.39-.78.67-.71.78-.85,1.26-1.27,1.6s-.73.08-1.31.47-.11,1.06-1.47,1.7a1.83,1.83,0,0,0-.22.48,18,18,0,0,1-2.67,3.38c-1.44,1.51-2.43,2.41-2.95,3-.51.43-1.55.68-2.12,2a18.88,18.88,0,0,0-1.86,1.13,4.5,4.5,0,0,1-1.11,1,3.24,3.24,0,0,0-1.05.87c-.53.76-.27,1.14-1.34,1.36a4.84,4.84,0,0,0-1.53.59,15.39,15.39,0,0,1-2.94,1.54c-.3.23-.16.32-.71.69-1.49.95-2.34,1.28-3.08,1.74a14.55,14.55,0,0,1-3,1.85,5.82,5.82,0,0,1-2.49,1.4c-.12.16-.09.16-.26.27a.48.48,0,0,1-.27,0c-1.22.69-1.45.88-2.35,1.46a8.22,8.22,0,0,1-2.31.89c-1.36.67-2.63,1.32-4.36,2-.57,0-.66-.42-1.09-.52s-.77.26-1,.63c-.24.08-.11.75-1.63.72a1.26,1.26,0,0,1-.44.53,5.5,5.5,0,0,0-.73.42c-.49.43,0,.5-.84,1a21.34,21.34,0,0,0-3.19,1.53,16.36,16.36,0,0,1-1.82.92c-.16,0-.36,0-.82,0a7.78,7.78,0,0,1-2,.62c-.88.25-1.26.31-1.87.51a2.37,2.37,0,0,0-1.23-.14,7.16,7.16,0,0,1-2.78.27,5.26,5.26,0,0,1-2.63.54,27,27,0,0,0-3.61,1,2.47,2.47,0,0,0-1-.1c-1,.16-1.53.39-2.19.5a11.06,11.06,0,0,1-1.41.1,3.45,3.45,0,0,0-1.25.6,11.39,11.39,0,0,0-3.35,0,7.94,7.94,0,0,1-2.18.32,4.13,4.13,0,0,0-1.42.3c-.33.16-.25.29-.59.38-1.21-.89-4,.22-6,.41-.27,0-.43-.15-1-.22a5.07,5.07,0,0,1-1.11-.06,7.07,7.07,0,0,0-1.45-.24,9.39,9.39,0,0,1-2.35.4,33.11,33.11,0,0,0-7.26-.67,10.73,10.73,0,0,0-1.24-.17,1.64,1.64,0,0,1-1.06.24c-.42-.07-.34-.37-1.17-.49-.8.06-1.22.44-2.11.42a4.51,4.51,0,0,0-1.58-.53c-1.36,0-2.83-.44-4.9-.46-1.73-.54-4.33,0-6.35-1.55-.67,0-.59.9-1.75,0a3.29,3.29,0,0,0-1.22-.34,9.23,9.23,0,0,1-1.37-.15c-1.51-.33-2-.62-2.94-.8a5.87,5.87,0,0,0-1.1-.14c-.35,0-.47,0-.71,0-.37-.26-.39-.54-.7-.68s-.34.11-.91,0a4.85,4.85,0,0,1-2.23-1.35,6.83,6.83,0,0,0-.74-.57.38.38,0,0,0-.43,0c-.23,0,0,.31-.53.31a1.31,1.31,0,0,0-.69-.52,16.28,16.28,0,0,0-1.7-.21c-.78-.29-1.29-.5-1.41-.72a.46.46,0,0,1-.16-.14c-.86.14-1.34-1.29-2.64-.69-.19,0-.21-.14-.26-.26-.48-.21-.65-.15-1.12-.32A2.51,2.51,0,0,1,70,231c-.29-.09-.56.19-1.08-.2a7.46,7.46,0,0,1-.82,0,3.69,3.69,0,0,0-2.2-.57,2.61,2.61,0,0,1-1-.63c-.13-.09-.18,0-.3-.16-.12-.35.1-.5-.21-.76-.12-.07-.22,0-.49,0s-.09-.57-.32-.83a1.37,1.37,0,0,0-.5-.28c-.46-.11-.58.06-1.06-.07s-.31-.31-1.47-.79a1.16,1.16,0,0,1-.8-.11c-.45-.22-.52-.68-1.31-.89,0,0,0,0-.11,0s-.07-.16-.18-.26a1.74,1.74,0,0,1-.91-.15c-.52-.35-.52-.64-1.06-.9a3.38,3.38,0,0,0-1.45-.26c-1,0-1.67-.86-2.88-1.41-.15-.18-.09-.28-.09-.57a7.38,7.38,0,0,1-1.85-.9,1.88,1.88,0,0,0-.54-.36,1,1,0,0,0-.47,0c-.11.11-.16.16-.46.18s-.17-.07-.65-.09a1.25,1.25,0,0,1-.62-.06c-.47-.19-.57-.36-1.19-.31a1.71,1.71,0,0,1-1,.36,2.33,2.33,0,0,1-1.41-.6,4.69,4.69,0,0,1-1.34-.24c-1.34-.45-1.84-.93-2.5-1.06a1.8,1.8,0,0,1-2-.28c-.53-.38-.76-.7-1-.83s-.19.05-.77-.06a3.54,3.54,0,0,1-1.18-1.33c0-.27.12-.33.16-.59s-.3-.52-.88-1c-.75-.86-1.72-1.39-1.79-3.23.23-1.13-.16-3.2.5-5,.35-.57.62-.81.91-1.27a9.44,9.44,0,0,1-.29-2A5.08,5.08,0,0,1,33.6,202a2.13,2.13,0,0,0-1.55-1.66c-.2-.31-.81-.4,0-1-.27-.46.7-1.3-.74-1.29a2.1,2.1,0,0,1-1.18-1c-.6-.37.53-1.56-.61-2.43-.11-.08-.2,0-.35-.09-.3-.48-.08-.84-.57-1.12-.32-.07-1.56.92-2.43.64a2.64,2.64,0,0,0-.15-1,1.11,1.11,0,0,1,.08-.36c-.07-.21-.14-.33-.2-.52a.49.49,0,0,1-.23-.12c-.13-.53-.49-.83-1.78-1.4-.15-.09-.14-.13-.3-.18s-.23.18-.53.08c-.56-.16-.72-.46-1-.51a1,1,0,0,0-.5-.07c.22-.39,1.44-.51.35-1.7a1,1,0,0,1-.24-1.29.67.67,0,0,0-.09-.42c-.17-.1-.36,0-.72-.48-.36-.11.05-1.55-1.29-1.57-.11-.13-.07-.29-.15-.43-.2-.31-.67-.53-.86-.74s-.1-.27-.27-.46a1.43,1.43,0,0,0-1.35.08.17.17,0,0,1-.11.11.16.16,0,0,1,0-.21c0-.26.1-.26,0-.51a1.49,1.49,0,0,1-.21-2.14c.12-.76.17-1.79-1.43-2-.11-.05-.12-.38.43-.55.05-.31.05-.52.07-.7s-.13-.25-.28-.34-.31,0-.45-.07a.47.47,0,0,1-.09-.59,1.11,1.11,0,0,0,.29-.76c-.23-.54-.64-.27-.88-.76a5.29,5.29,0,0,1,0-1.05,3.32,3.32,0,0,0-1-1.45c-.41-.47-2-1.84-1.36-3.43a.62.62,0,0,0-.26-.47c-.07-.12.05-.08-.15-.23s-.37,0-.49-.27.12-.33.12-.6a1.86,1.86,0,0,0-.3-.79c-.24-.43.2-.61-.69-1.8-.17-.5,0-.5-.1-1A5.06,5.06,0,0,0,9.47,162c-.56-.75-.23-1.25-.82-2.52a1.54,1.54,0,0,1-.83-.24c-.49-.53-.34-.65-.53-1.25-.11-.35-.14-.71-.26-1.2s-.34-.33-.45-.84.12-.46.07-1a2.63,2.63,0,0,0-.78-1.33,5.48,5.48,0,0,1-1.26-2.67c-.36-.64-.69-.64-.69-.75A3,3,0,0,0,3.8,149c-.37-1.14-.65-1.19-1-2.26a20.87,20.87,0,0,0-.41-2.16c-.62-1.59-.14-4-1.47-5.68,0-.26.05-.19.07-.65s0-.44,0-1.56A1.05,1.05,0,0,0,.52,136a3.11,3.11,0,0,0,.26-1.26,6.11,6.11,0,0,1,.16-1.39c.11-.79.88-1.45,0-2.85,0-.45.42-.45.53-1.5s-.27-1.53-.25-2.48a4.39,4.39,0,0,1,.57-1.86,14.39,14.39,0,0,0,.7-1.54,3.79,3.79,0,0,1,.82-1.31,3.57,3.57,0,0,0,.64-.7,4.11,4.11,0,0,0,.37-1.13c.26-.33.78-.38.95-.54,0-.1,0-.18.05-.4-.13-.5-.22-.74,0-1.12s.75-.4.85-.42a.23.23,0,0,1,0,.16A3.9,3.9,0,0,0,5.73,119c0,.28.23.46.28.55s-.08.08-.21.18-.45.09-.56.43a4.9,4.9,0,0,0,.25,1.16c0,1.39.72,2.13-.18,3.55,0,.13,0,.2,0,.35s.69.49-.06.65c0,0,0,.07,0,.09a3.4,3.4,0,0,1-.15.49.37.37,0,0,0,0,.15,1.75,1.75,0,0,1,.42.39,5.48,5.48,0,0,0,.51.46,1.26,1.26,0,0,0,.69,0,.61.61,0,0,1,.34.41.36.36,0,0,1,0,.18c-.18.09-.35,0-.53.12a.29.29,0,0,0-.13.37,2.15,2.15,0,0,1,.31.91,1.78,1.78,0,0,1-.16.63,7.24,7.24,0,0,1,.26,1.73c0,1,.15,1.06.13,2a6,6,0,0,1-.36,2.07,2.41,2.41,0,0,1,.13.58,2.21,2.21,0,0,0,0,.9c.37.81,1.1,1.35.95,2.89A3.46,3.46,0,0,1,8,142.5c0,.32.06.57.19.63s.12,0,.16,0a1.71,1.71,0,0,0,0,.46c.2.74.45,1.22.52,1.48-.09.24.38.76-.28,1.17-.09.18-.12.25,0,.39s.26.05.49.22a1.21,1.21,0,0,1,.2.75,7.26,7.26,0,0,0,.43,1.64,7.62,7.62,0,0,1,.44,2.14c0,.19,0,.25.05.37a.72.72,0,0,1,.08.64A17.57,17.57,0,0,1,11.66,157c.25.49.57.58.65,1,0,.16-.08.31-.11.44s-.09.16.17.73a5.17,5.17,0,0,1,.67,1.14.84.84,0,0,1,.08.47.35.35,0,0,1,.33.22,4,4,0,0,0,0,.48c0,.59.15.82.26,1.84a1.16,1.16,0,0,1,.48.46,2,2,0,0,1,.07.57,6.67,6.67,0,0,1,.13.8c0,.15-.05.2,0,.3a.46.46,0,0,0,.29.35c.17.13.31.05.42.36a2.82,2.82,0,0,0-.13.76.53.53,0,0,0,.47.43c.13,0,.26,0,.33.21s0,.14-.07.29c0,.56,0,.77-.05,1.13,0,1.08,1.21.85,1.17,1.27,0,.12-.09.23-.13.48.13.34.49.46.79.67s.53.24.5.5c0,.1-.1.21-.12.3s-.05.22.12.36.34-.14.56.21a1.18,1.18,0,0,1,.05.51c.22.6,0,.36.58,1.18s1.31.69,1.49,1.56c.11.25,0,.48,0,.72.07.08-.36.37.23.87.17.1.75.06.84,1.24a6,6,0,0,0,.21,1.29,1.68,1.68,0,0,0,.75,1,2,2,0,0,0,.88.23.14.14,0,0,1,.11,0,.62.62,0,0,1,0,.16,2.75,2.75,0,0,0,.14,1,1.86,1.86,0,0,1,.08,1.17c0,.5.36.75,1.34,1.5a1.19,1.19,0,0,0,1,0c-.13.12-.13.1-.27.45s.12.35-.45,1.05c.06.07-.2.51.49.38a.85.85,0,0,1,.65-.29,1.22,1.22,0,0,1,.89.42.74.74,0,0,1,.14.4.87.87,0,0,0,0,.28,1.39,1.39,0,0,1,.65.48,3.06,3.06,0,0,1,.45,1.17,3.56,3.56,0,0,0,.34,1c.05.09.08.09.21.23.37.11.62.11.85.45.19.17-.16.17.15.79A4.68,4.68,0,0,1,32,193.44c.63.48.51.82,1.63,1.54a1,1,0,0,0,.16.91,2.37,2.37,0,0,1,.49,1c.08.27,0,.37,0,.54s-.1.56.77.43c.61.21.94,1.11,1.86,1.46a1.61,1.61,0,0,1,0,.45c.15.25.12.23.5.46s.6,0,.9.41c.21.76-.15,1.15.44,2.53.06.18.11.09.16.36s-.05.41,0,.54c.23.19.92,0,1.68-.18a2.21,2.21,0,0,1,1.49.31,1.9,1.9,0,0,1,.58,1c.1.15.1.19.25.29a3.29,3.29,0,0,0,.7.11c.27.05.49.08.63.45s0,.47-.2,1c0,.33-.76.59-.18,1.91.18.07.34.07.82-.08.31-.24.4-.41.89-.44a4.46,4.46,0,0,1,1.44.53,8.06,8.06,0,0,0,.82.06c.45.17.53-.56,1.73.35a1.11,1.11,0,0,1,.81.34,2.48,2.48,0,0,1,.47,1.24.5.5,0,0,1,.48,0c.17.14.22.21.51.44l.61.45a4.46,4.46,0,0,0,1.42.94c.19.28,0,.43.05.65a2.14,2.14,0,0,1,1.2.24,1.22,1.22,0,0,1,.36.61c.08.21.69.14,1.31.63.6.27.24,1.1.93,1.47.08,0,.17,0,.26.07a1.45,1.45,0,0,0,.27.42,2.39,2.39,0,0,1,1,.27c.43.23.63.32,1,.48a1.63,1.63,0,0,1,.74.28,5.31,5.31,0,0,1,.73.82,9.69,9.69,0,0,1,2.21,1.65,3.86,3.86,0,0,1,1.2.6c.2.32.71.28,1.45.58.11.31-.18.89.85.6a2,2,0,0,1,.89.45c.62.4.77.66,1.09.86a2.41,2.41,0,0,0,.81.33c.22.06,0,0,.68,0,.06,0,0,0,.08.09a1.23,1.23,0,0,0,.32.07c.49-.05.35-.16,1-.22a12.19,12.19,0,0,1,1.92.19,4.14,4.14,0,0,0,.72,0c.08,0,.13.47.54.75.63.31,1.13.17,1.72.39s.57.39.94.62a5.6,5.6,0,0,0,.78.45,16.17,16.17,0,0,0,1.86.62,26.75,26.75,0,0,0,3.94,1c.26.15.55-.1,1.15.61a9.14,9.14,0,0,0,1.45.15c.91.14,1.41.33,1.79.35s.53-.05.68-.24-.07-.16-.19-.72c.06,0,.3-.47,1,0a.65.65,0,0,1,.07.36,2.72,2.72,0,0,0-.29.55c0,.13,0,.18,0,.25a1.78,1.78,0,0,0,.64.25,60.51,60.51,0,0,0,6.26,1.36,12.91,12.91,0,0,1,4.23,1.5c.35.14.26.23.77.24s1-.49,1.9,0a2,2,0,0,0,1,.62c.41.12.33.06,1,0a6.11,6.11,0,0,1,2.81-.11c.16.11.21.32.51.49,1.12.73,2-.6,3.71.28a1.68,1.68,0,0,0,1-.13c1.19-.06,2.07-.05,3.53,0,1.34-.11,2-.4,3.74-.49,3.54.36,7.33,1.09,11.41.2,1.1-.34,1.16-.53,2-.83a21.32,21.32,0,0,0,2.43-.77c0-.06.07-.13.1-.14s0,0,.09,0c.52.12.57-.28,1.6-.2.14,0-.07-.05.18-.15s1,0,1.7-.58c.77.1,1.62-1.15,2.47-.51.11,0,.09.12.28,0s.34-.91,1.09-.34c0,.05,0,.11.09.15l1.26-.38a4.72,4.72,0,0,1,3.23-.47c.2,0,.21-.05.39-.05a5.57,5.57,0,0,1,1-.39c.58-.17.7-.11,1.24-.26a6.9,6.9,0,0,0,1.54-.92c.89-.38,1-.9,2.67-1.19.07,0,.15-.34.42,0,.3.07.38,0,.7.05,1.77-.5,3.24-1.4,5.78-1.45a10.87,10.87,0,0,1,2-.64c.16-.2.87.27,1.32-.47.53-.37,1.5-1.27,2.63-2a2.9,2.9,0,0,1,.83-.34,6.66,6.66,0,0,0,1.25-.41,5.7,5.7,0,0,0,2.15-2.05c.68-.56,1.17-.64,1.68-1s.44-.5.82-.84c.7-.35,1.16-.48,1.69-.74s.32-.22,1-.53c.5-.32,1.17-.2,1.84-1.06a1.6,1.6,0,0,0,.21-.55,1.68,1.68,0,0,1,.59-.47,4,4,0,0,0,1.84-1.28c3.13-2.15,6.45-4.16,9.62-7.67a9.34,9.34,0,0,1,1.78-1.14c.9-.67.74-.71,1.64-1.4s.63-.45,1.9-1.35,3.14-2.19,4.61-3.31a2.91,2.91,0,0,0,.66-.92.88.88,0,0,1,.32-.47,6.62,6.62,0,0,0,1.89-1.53c.34-.27.08-.83.68-1.06a.83.83,0,0,0,.44-.07,4.15,4.15,0,0,1,.38-.64,4,4,0,0,1,1.41-1,16.74,16.74,0,0,0,2.13-2.52,4.38,4.38,0,0,0,.78-.57c.3-.39.18-.49.34-.84,1.19-1.79,1.55-4.45,3.84-6.09a15.54,15.54,0,0,0,1.08-1.15c.52-.65.21-.72,1.43-1.72.15-.27.5-.24.54-1.23,0-.26-.12-.34,0-.57s.26-.25.53-.4a1.35,1.35,0,0,0,.65-.23c.2-.15.2-.3.27-.48a7.29,7.29,0,0,1,.13-1.16,6.33,6.33,0,0,1,.61-1.48c.75-1.37,1.61-2.21,2.54-4.09a13.86,13.86,0,0,0,.46-2c.47-1.17.83-1.66,1.09-2.34a8.7,8.7,0,0,0,.56-1.29c.32-.68-.09-.91.73-2,.28-.38.36-.38.64-.74a15.25,15.25,0,0,0,.49-1.6c.06-.18.14-.23.17-.35s0-.08,0-.32c.79-1.05.86-3.76,1.94-5.29.14-.22.22-.22.34-.47.24-1.17,1.19-2.65,1.22-4.51.17-.66.44-.64.51-1.3s-.32-.55-.22-1.34a10.41,10.41,0,0,0,.85-4.14c.06-.64.1-1.06.22-1.85.35-1.26.77-1.58.89-2.84s0-1.39.08-2.46a19.81,19.81,0,0,1,.48-3.13,3.6,3.6,0,0,0,.23-1.18c.22-1.09-.4-2,.24-3a2.21,2.21,0,0,0,.63-1.16,3,3,0,0,0-.18-1.88c0-.28-.33-.13-.54-.92a1.18,1.18,0,0,1,.27-.37c.3-.59.91-.65.35-2-.08-.19-.17-.19-.26-.51-.08-.6.26-.74.09-1.79a4.29,4.29,0,0,1,.5-1.18,3.18,3.18,0,0,0,.27-.72c.23-.23.43-.2.82-.34s.58-.15.75-.48a1,1,0,0,0,.1-.33C236.88,115.38,236.78,115.29,236.94,115.15Z" transform="translate(-0.52 -0.12)"/></svg>