<svg version="1.1" id="Capa_1" xmlns="http://www.w3.org/2000/svg"
	xmlns:xlink="http://www.w3.org/1999/xlink" x="0px" y="0px" viewBox="0 0 512 512"
	style="enable-background:new 0 0 512 512;" xml:space="preserve">
	<g background="white">

		<path
			d="M509.358,190.097l-187.733-179.2c-2.479-2.367-6.121-3.021-9.25-1.675c-3.138,1.346-5.175,4.429-5.175,7.846v94.821
			C134.288,125.018,0,269.243,0,443.735v51.2c0,4.008,2.792,7.479,6.708,8.338c0.608,0.133,1.221,0.196,1.829,0.196
			c3.275,0,6.333-1.892,7.746-4.967l9.383-20.383C77.471,366.056,184.796,291.81,307.2,282.656v92.812
			c0,3.417,2.037,6.5,5.175,7.846c3.133,1.342,6.771,0.688,9.25-1.675l187.733-179.2c1.688-1.608,2.642-3.837,2.642-6.171
			C512,193.935,511.046,191.706,509.358,190.097z M324.267,355.527v-81.946c0-2.333-0.958-4.567-2.646-6.179
			c-1.692-1.608-3.992-2.404-6.3-2.346c-127.242,6.175-240.133,79.2-298.254,191.808v-13.129
			c0-168.121,131.383-306.625,299.108-315.321c4.533-0.233,8.092-3.979,8.092-8.521V37.01l166.842,159.258L324.267,355.527z" />
	</g>
</svg>