<svg viewBox="0 0 13 13" fill="none" xmlns="http://www.w3.org/2000/svg">
   <path
      d="M9.295 0H3.705C1.66834 0 0 1.66834 0 3.705V9.295C0 11.3317 1.66834 13 3.705 13H9.295C11.3317 13 13 11.3317 13 9.295V3.705C13 1.66834 11.3317 0 9.295 0ZM12.5667 9.295C12.5667 11.0933 11.0933 12.5667 9.295 12.5667H3.705C1.90666 12.5667 0.433342 11.0933 0.433342 9.295V3.705C0.433342 1.90666 1.90668 0.433342 3.705 0.433342H9.295C11.0933 0.433342 12.5667 1.90668 12.5667 3.705V9.295Z"
      fill="white" />
   <path
      d="M6.49998 3.03333C4.59332 3.03333 3.03333 4.59332 3.03333 6.49998C3.03333 8.40664 4.59332 9.96664 6.49998 9.96664C8.40664 9.96664 9.96664 8.40664 9.96664 6.49998C9.96664 4.59332 8.40664 3.03333 6.49998 3.03333ZM6.49998 9.53332C4.83164 9.53332 3.46664 8.16832 3.46664 6.49998C3.46664 4.83164 4.83164 3.46664 6.49998 3.46664C8.16832 3.46664 9.53332 4.83164 9.53332 6.49998C9.53332 8.16832 8.16832 9.53332 6.49998 9.53332Z"
      fill="white" />
   <path fill-rule="evenodd" clip-rule="evenodd"
      d="M9.5 3C9.5 2.43332 9.93332 2 10.5 2C11.0667 2 11.5 2.43332 11.5 3C11.5 3.56668 11.0667 4 10.5 4C9.93332 4 9.5 3.56668 9.5 3ZM9.93005 3.00005C9.93005 2.67705 10.177 2.43005 10.5001 2.43005C10.8231 2.43005 11.0701 2.67705 11.0701 3.00005C11.0701 3.32306 10.8231 3.57005 10.5001 3.57005C10.177 3.57005 9.93005 3.32306 9.93005 3.00005Z"
      fill="white" />
</svg>