<svg height="512" viewBox="0 0 60 60" width="512" 
   xmlns="http://www.w3.org/2000/svg">
   <path id="Shape" d="m55.9 45h1.1c1.6534434-.0082058 2.9917942-1.3465566 3-3 0-1.6568542-1.3431458-3-3-3h-13.184c-.3189711-.8897317-1.0385926-1.5771148-1.942-1.855 1.3730849-1.7544915 2.1212843-3.9170906 2.126-6.145v-9.311c2.8272428-2.5150984 3.766246-6.5369954 2.345-10.044 1.8209131-1.3247031 3.109765-3.25532169 3.635-5.445.0522187-.26005461-.0010193-.53020173-.148-.751-1.893-2.84-5.5-3.771-7.483-4.074-2.3925762-.39659028-4.8450385-.22148783-7.157.511-.136.045-.266.1-.4.16-1.4927661-.72090033-3.1346105-1.07928289-4.792-1.046-1.6572657-.03439475-3.2993124.32224422-4.793 1.041-.131-.053-.261-.113-.395-.158-2.3136689-.73434343-4.7685175-.90946945-7.163-.511-1.982.3-5.588 1.233-7.481 4.073-.1469807.22079827-.20021872.49094539-.148.751.5243661 2.19114076 1.8133016 4.123303 3.635 5.449-1.421246 3.5070046-.4822428 7.5289016 2.345 10.044v9.311c.0047157 2.2279094.7529151 4.3905085 2.126 6.145-.9034074.2778852-1.6230289.9652683-1.942 1.855h-5.184c-3.05362559.0010379-5.96940871 1.2713747-8.04949114 3.5069702-2.08008244 2.2355956-3.13725968 5.2352494-2.91850886 8.2810298.50541621 5.8319741 5.42463709 10.2862287 11.278 10.212h45.69c1.6534434-.0082058 2.9917942-1.3465566 3-3 0-1.6568542-1.3431458-3-3-3h-1.1c-1.1945687-3.2263088-1.1945687-6.7736912 0-10zm2.1-3c.0006712.2696918-.1100548.5276905-.306.713-.1830903.1854514-.4334037.2889672-.694.287h-13v-2h13c.5522847 0 1 .4477153 1 1zm-16 2c0 .5522847-.4477153 1-1 1s-1-.4477153-1-1v-4c0-.5522847.4477153-1 1-1s1 .4477153 1 1zm-16-1v-2h8v2zm-4-3c0-.5522847.4477153-1 1-1s1 .4477153 1 1v4c0 .5522847-.4477153 1-1 1s-1-.4477153-1-1zm3.764-16.836c2.036 4.836 3.674 4.836 4.236 4.836s2.2 0 4.236-4.836c.6647593.3099058 1.3654654.5359725 2.086.673.5294313 2.0095193.7579168 4.0864455.678 6.163.0071286 2.6097195-.5768071 5.1871732-1.708 7.539-.507509.3582428-.8917456.8647365-1.1 1.45-.063 0-.124.011-.188.011h-8.004c-.064 0-.125-.01-.188-.011-.2082544-.5852635-.592491-1.0917572-1.1-1.45-1.1325743-2.3515021-1.7178809-4.9289709-1.712-7.539-.0799168-2.0765545.1485687-4.1534807.678-6.163.7205346-.1370275 1.4212407-.3630942 2.086-.673zm1.736-1.056c1.0417043-.8061705 1.8948937-1.8299978 2.5-3 .6051063 1.1700022 1.4582957 2.1938295 2.5 3-1.182 2.875-2.2 3.892-2.5 3.892s-1.318-1.017-2.5-3.892zm8.5 17.892c0-.5522847.4477153-1 1-1s1 .4477153 1 1v4c0 .5522847-.4477153 1-1 1s-1-.4477153-1-1zm6-9c-.0061858 2.5800313-1.2584424 4.9981307-3.362 6.492-.2944572-.1918906-.6204502-.3303446-.963-.409.874405-2.2591665 1.3236202-4.6605187 1.325-7.083.0532774-2.0224031-.1343761-4.0439587-.559-6.022 1.2378476-.0592022 2.4498493-.3752285 3.559-.928zm-4-9c-3.8659932 0-7-3.1340068-7-7s3.1340068-7 7-7 7 3.1340068 7 7c-.0044086 3.8641657-3.1358343 6.9955914-7 7zm4.049-18.651c1.262.192 4.256.847 5.862 2.855-.445596 1.4529839-1.3262129 2.73429373-2.523 3.671-1.4750139-2.13685437-3.8040259-3.52924556-6.384535-3.81697049-2.580509-.28772494-5.1590116.55748183-7.068465 2.31697049.1510424-.46821407.3290055-.92731211.533-1.375.6337067-1.48836684 1.8488715-2.6525836 3.363-3.222 2.0099328-.63082655 4.1404782-.77781979 6.218-.429zm-12.049-.349c.9104413-.00155173 1.816713.12296388 2.693.37-.8613103.78202404-1.555267 1.73043159-2.04 2.788-.2509888.55022644-.4690403 1.11488946-.653 1.691-.1834544-.57517326-.4011772-1.13884819-.652-1.688-.4845359-1.0588159-1.1788776-2.00830521-2.041-2.791.876287-.24703612 1.7825587-.37155173 2.693-.37zm-17.909 3.2c1.607-2 4.6-2.66 5.857-2.851 2.0793407-.35113328 4.212297-.20445827 6.224.428 1.5135656.57010546 2.7279747 1.73465187 3.361 3.223.2038535.44523759.3814902.90201762.532 1.368-1.90974-1.75884641-4.4880627-2.60362766-7.0683488-2.31592758s-4.9092162 1.67963655-6.3846512 3.81592758c-1.1905976-.94084022-2.0692933-2.21932338-2.521-3.668zm2.909 8.8c0-3.8659932 3.1340068-7 7-7s7 3.1340068 7 7-3.1340068 7-7 7c-3.8641657-.0044086-6.9955914-3.1358343-7-7zm3 8.05c1.1091507.5527715 2.3211524.8687978 3.559.928-.4246239 1.9780413-.6122774 3.9995969-.559 6.022.0013798 2.4224813.450595 4.8238335 1.325 7.083-.3425498.0786554-.6685428.2171094-.963.409-2.1035576-1.4938693-3.3558142-3.9119687-3.362-6.492zm1 15.95c.5522847 0 1 .4477153 1 1v4c0 .5522847-.4477153 1-1 1s-1-.4477153-1-1v-4c0-.5522847.4477153-1 1-1zm39 19c.0006712.2696918-.1100548.5276905-.306.713-.1830903.1854514-.4334037.2889672-.694.287h-45.69c-4.8041442.0758251-8.85313531-3.5675254-9.283-8.353-.17962923-2.4922385.68492844-4.9469793 2.38670831-6.7765871 1.70177987-1.8296077 4.08758839-2.8693818 6.58629169-2.8704129h5v2h-5c-3.79226409.0060582-6.89295191 3.0252423-7 6.816-.03588878 1.8535453.6831313 3.6420716 1.992 4.955 1.38380615 1.4166243 3.27768353 2.2194871 5.258 2.229h45.75c.5522847 0 1 .4477153 1 1zm-46.75-3c-1.44196641-.0084758-2.82038706-.5944936-3.827-1.627-.93063276-.927839-1.44425683-2.1940324-1.423-3.508.07938979-2.7058275 2.29301331-4.8596832 5-4.865h5.184c.3272348.945892 1.1086023 1.6635411 2.0788516 1.9093268s1.9990475-.0133081 2.7371484-.6893268c.7381009.6760187 1.7668991.9351125 2.7371484.6893268s1.7516168-.9634348 2.0788516-1.9093268h8.368c.3272348.945892 1.1086023 1.6635411 2.0788516 1.9093268s1.9990475-.0133081 2.7371484-.6893268c.7381009.6760187 1.7668991.9351125 2.7371484.6893268s1.7516168-.9634348 2.0788516-1.9093268h9.941c-1.0093364 3.2569263-1.0093364 6.7430737 0 10z" />
   <path id="Shape" d="m49 49h-24c-.5522847 0-1 .4477153-1 1s.4477153 1 1 1h24c.5522847 0 1-.4477153 1-1s-.4477153-1-1-1z" />
   <path id="Shape" d="m21 49h-10c-.5522847 0-1 .4477153-1 1s.4477153 1 1 1h10c.5522847 0 1-.4477153 1-1s-.4477153-1-1-1z" />
   <path id="Shape" d="m23 18c1.6568542 0 3-1.3431458 3-3s-1.3431458-3-3-3-3 1.3431458-3 3 1.3431458 3 3 3zm0-4c.5522847 0 1 .4477153 1 1s-.4477153 1-1 1-1-.4477153-1-1 .4477153-1 1-1z" />
   <path id="Shape" d="m37 12c-1.6568542 0-3 1.3431458-3 3s1.3431458 3 3 3 3-1.3431458 3-3-1.3431458-3-3-3zm0 4c-.5522847 0-1-.4477153-1-1s.4477153-1 1-1 1 .4477153 1 1-.4477153 1-1 1z" />
</svg>