<svg fill="none" xmlns="http://www.w3.org/2000/svg" viewBox="0 0 64 64">
   <path
      d="M42.344 24.523c-.028.18-.06.364-.096.565-1.249 6.396-5.515 8.612-10.967 8.612h-2.777c-.66 0-1.224.478-1.33 1.13l-1.413 9.02-.404 2.543a.71.71 0 00.703.82h4.905a1.181 1.181 0 001.17-.998l.047-.252.927-5.884.059-.322a1.187 1.187 0 011.187-.978h.734c4.772 0 8.504-1.936 9.605-7.544.458-2.343.22-4.298-.986-5.672a4.652 4.652 0 00-1.364-1.04z"
      fill="#179BD7"></path>
   <path
      d="M41.039 24.003a8.919 8.919 0 00-1.212-.268 15.342 15.342 0 00-2.447-.181h-7.416c-.583 0-1.08.426-1.17 1.003l-1.576 9.994-.045.283a1.347 1.347 0 011.33-1.13h2.778c5.452 0 9.718-2.214 10.967-8.62.036-.193.068-.377.096-.566a6.499 6.499 0 00-1.026-.433l-.28-.082z"
      fill="#222D65"></path>
   <path
      d="M28.795 24.557a1.18 1.18 0 01.658-.884 1.15 1.15 0 01.511-.102h7.416c.819-.006 1.637.053 2.447.178a10.104 10.104 0 011.212.268l.282.088c.353.116.696.26 1.026.432.37-2.368 0-3.98-1.283-5.44-1.413-1.623-3.958-2.31-7.218-2.31h-9.461c-.66.003-1.222.48-1.33 1.131L19.098 42.92a.811.811 0 00.8.941h5.853l1.466-9.31 1.577-9.994z"
      fill="#253B80"></path>
</svg>