<svg viewBox="0 0 64 64" fill="none" xmlns="http://www.w3.org/2000/svg">
   <path fill-rule="evenodd" clip-rule="evenodd"
      d="M42.133 47h.733l.8-.067.734-.133.733-.134.733-.133.733-.2.667-.267.667-.266.666-.267.667-.333.667-.4.6-.334.6-.466.533-.4.533-.534.534-.466.533-.534.467-.533.4-.6.466-.533.4-.667.334-.6.333-.667.267-.666.266-.667.267-.667.2-.733.2-.733.133-.733.067-.734.067-.8V31.2l-.067-.733-.067-.8-.133-.734-.2-.666-.2-.734-.267-.733-.266-.667-.267-.666-.333-.6-.334-.667-.4-.6-.466-.6-.4-.533-.467-.534-.533-.533-.534-.533-.533-.467-.533-.4-.6-.467-.6-.333-.667-.4-.666-.333-.667-.267-.667-.267-.666-.266-.734-.2-.733-.134-.733-.133-.734-.133-.8-.067h-1.533l-.733.067-.8.133-.734.133-.666.134-.734.2-.733.266-.667.267-.666.267-.6.333-.667.4-.6.333-.6.467-.533.4-.534.467-.533.533-.533.533-.467.534-.4.533-.467.6-.333.6-.4.667-.333.6-.267.666-.267.667-.266.733-.2.733-.134.667-.133.733-.133.8-.067.734v1.533l.067.8.133.733.133.734.134.733.2.733.266.667.267.667.267.666.333.667.4.6.333.667.467.533.4.6.467.533.533.534.533.466.534.534.533.4.6.466.6.334.667.4.6.333.666.267.667.266.733.267.734.2.666.133.734.134.8.133.733.067h.8z"
      fill="#FBB231"></path>
   <path fill-rule="evenodd" clip-rule="evenodd"
      d="M22.067 47h.733l.8-.066.733-.134.733-.133.734-.134.733-.2.667-.266.666-.267.667-.267.667-.333.6-.4.6-.333L31 44l.6-.4.533-.533.533-.467.467-.533.467-.534.466-.6.4-.533.4-.666.334-.6.333-.667.333-.667.267-.666.2-.667.2-.733.2-.734.133-.733.067-.733.067-.8V31.2l-.067-.733-.067-.8-.133-.733-.2-.667-.2-.733-.2-.734-.267-.666-.333-.667-.333-.6-.334-.667-.4-.6-.4-.6-.466-.533-.467-.533-.467-.534-.533-.533-.533-.467-.6-.4-.6-.466-.6-.333-.6-.4-.667-.334-.667-.266-.666-.267-.667-.267-.733-.2-.734-.133-.733-.133-.733-.134-.8-.067h-1.533l-.734.067-.8.134-.733.133-.733.133-.667.2-.734.267-.666.267-.667.266-.666.334-.6.4-.6.333-.6.466-.6.4-.534.467-.533.533-.467.534-.466.533L10 23l-.4.6-.4.6-.4.667-.333.6-.267.667-.267.666-.266.734-.2.733-.134.667-.133.733-.133.8v.733L7 32l.067.734v.8l.133.733.133.733.134.734.2.733.266.667.267.666.267.667.333.667.4.6.4.666.4.534.467.6.466.533.467.533.533.467.534.533.6.4.6.467.6.333.6.4.666.333.667.267.666.267.734.267.666.2.734.133.733.133.8.134.733.066h.8z"
      fill="#EC1C2E"></path>
   <path fill-rule="evenodd" clip-rule="evenodd"
      d="M30.333 22.733h7.933v-.8H31l-.667.8zm-1.2 1.8h9.133v-.8H29.6l-.467.8zm-.866 1.867h10v-.867H28.6l-.334.867zm-.667 1.8h10.666v-.866h-10.4l-.266.866zm.4 8.733h10.333v-.8h-10.6l.267.8zm.733 1.8h9.6v-.8h-10l.4.8zm1.067 1.8h8.533v-.8h-9l.467.8zm1.466 1.8h7.067v-.8H30.6l.666.8zM27.267 30h11v-.8H27.4l-.133.8zM34 35.133h4.2v-.8h-4.067l-.133.8zm.333-1.8H38.2v-.8h-3.734l-.133.8zm-7.333-.8h1.066v.8h-1l-.066-.8z"
      fill="#FBB231"></path>
   <path fill-rule="evenodd" clip-rule="evenodd"
      d="M24.933 31.533h-.067l-.066-.066h-.4l-.067-.067h-.6l-.133.067h-.333l-.067.066h-.067l-.066.067-.067.067v.066h-.067v.334l.067.066.067.067.066.067.134.133.133.067h.133l.2.066.133.067.2.067.134.066.2.067.133.133.133.134.067.133.067.2.066.2v.867l-.066.2-.134.2L24.6 35l-.134.133-.133.133-.133.134-.133.067-.2.133-.134.066h-.2l-.133.067h-.2l-.2.067h-1.2l-.134-.067H21.2l-.067-.066h-.2l-.067-.067H20.8l-.134-.067.267-1.066h.134l.133.066h.2l.067.067h.399l.134.066h.866L23 34.6l.067-.067.066-.066.067-.067.067-.067v-.2l.066-.133-.066-.133-.067-.067-.133-.067-.2-.133-.134-.067-.2-.066-.2-.067-.2-.067-.2-.133-.2-.133-.133-.134-.134-.2-.066-.266-.067-.267v-.533l.067-.134.067-.2.066-.133.067-.2.066-.133.134-.134.133-.066.134-.134.133-.066.2-.067.2-.067h.2l.267-.066h1.666l.067.066h.333l.067.067-.267 1.133zm1.2-2.4h1.4l-.2 1.2h.867l-.2 1.134h-.867l-.533 2.8v.133l.066.067.067.066v.067h.133l.067.067h.667l.066-.067h.067l-.2.933-.067.067H27.4v.067h-.2l-.067.066H25.8l-.134-.066-.133-.067h-.067l-.133-.067-.066-.066-.067-.067v-.2l-.067-.067v-.266l.067-.067v-.133l.933-5.534zM41.4 30.666l-.067-.067h-.067l-.066-.066h-.134L41 30.466h-.066l-.067-.067h-.2l-.133-.066h-.267l-.133-.067h-.4l-.133.067h-.267l-.133.067-.134.066-.133.067-.133.066-.2.134-.067.133L38.4 31l-.134.2-.133.2-.067.266-.133.267-.067.333-.066.2v.667l.066.2v.133l.067.133.067.134.133.133.067.133.133.134.133.066.2.067.134.067.2.067h.266l.067.066h.467l.133-.066h.133l.133-.067h.134l.133-.067.133-.066.067-.067.134-.134-.267 1.4v.067h-.067l-.066.067h-.067l-.067.066H40.2l-.067.067h-.134l-.133.067h-1.533l-.2-.067-.267-.066-.2-.134-.266-.133-.2-.133-.2-.134-.2-.2-.134-.267-.133-.266-.133-.267-.134-.333V33.4l-.066-.334v-.4l.066-.4.067-.2v-.2l.067-.2.066-.2.067-.2.067-.133.066-.2.067-.134.067-.2.066-.133.067-.133.133-.133.067-.134.133-.133.067-.067.133-.133.134-.134.066-.066.134-.067.133-.067.133-.133.134-.066h.133l.133-.067.2-.067L38.8 29h.2l.133-.067h.333l.2-.067h.4l.133.067h.467L40.8 29h.133l.066.066h.134l.133.067h.067l.067.067h.133l.066.066-.2 1.4zm12.466 5.067H52.4l.134-.533v-.067l-.067.134-.067.066-.133.067-.067.067-.133.066L52 35.6l-.066.067-.134.066h-.066l-.134.067h-.266l-.067.067H51l-.2-.067-.266-.067-.2-.066-.2-.134-.2-.133-.2-.133-.133-.2-.134-.2-.066-.267-.067-.2-.067-.267-.066-.266v-.8l.066-.2.067-.334.133-.266.067-.267.133-.267.134-.2.133-.2.2-.2.133-.133.2-.2.2-.067.2-.133.133-.067.267-.133h.2l.2-.067H52l.134.067h.266l.134.067.066.066.134.067h.066l.067.067.067.066.066.067.067.067.067.066.066.067v.067l.067.066.333-2H55l-1.133 6.6z"
      fill="#fff"></path>
   <path fill-rule="evenodd" clip-rule="evenodd"
      d="M51.533 34.533h.266l.134-.067.133-.067.067-.066.133-.067.067-.067.133-.133.067-.067.066-.133.067-.067.067-.133v-.133l.066-.134.067-.133v-.267l.067-.2v-.133l-.067-.133v-.267l-.067-.067v-.133l-.066-.133-.067-.067-.067-.067-.066-.066-.067-.067-.133-.067h-.067l-.133-.066-.134.066h-.133l-.067.067h-.133l-.133.067-.067.133-.067.067-.133.066-.067.134-.066.133-.067.067-.067.133-.066.133v.2l-.067.134v.133l-.067.2.067.267v.266l.067.2.133.2.133.2.134.134h.2z"
      fill="#FBB231"></path>
   <path fill-rule="evenodd" clip-rule="evenodd"
      d="M20.466 34.666l-.2 1.067H19v-.2l.067-.133v-.267l-.067.133-.067.067-.067.067-.133.067-.133.066-.133.067-.134.066-.133.067h-.133l-.134.067H17.8l-.2.067h-.4l-.133-.067h-.2l-.134-.067-.133-.066-.133-.067-.134-.133-.066-.067-.134-.067-.066-.133-.067-.067V35l-.067-.133V34.8l-.066-.133v-.534l.066-.2v-.2L16 33.6l.067-.2.133-.133.067-.134L16.4 33l.133-.133.134-.067.133-.133.2-.067.133-.067.2-.066.134-.067h.466l.067-.067h.6l.066-.066h.134l.133.066h.467v-.066l.067-.067v-.333L19.4 31.8l-.067-.133-.066-.067-.067-.067h-.133l-.134-.066h-1.2l-.2.066h-.266l-.134.067H17l-.133.067H16.8l-.067.066h-.066l.333-1.2.133-.066h.134l.133-.067h.067l.133-.067h.4l.133-.066h1.134l.2.066h.266l.2.067.134.067.133.066.2.067.133.133.133.067.067.133.133.134.067.2.067.133v.6l-.534 2.666z"
      fill="#fff"></path>
   <path fill-rule="evenodd" clip-rule="evenodd"
      d="M19.267 33.333v-.067h-.2L19 33.2h-.134l-.066.066h-.4l-.067.067H18.2l-.067.067H18l-.067.066h-.066l-.067.067-.067.067-.066.066H17.6l-.067.067v.067l-.066.066v.2l-.067.134.067.133.066.133.067.067.067.067h.066l.067.066h.267l.133-.066h.2l.133-.067.067-.067h.133l.067-.066.066-.067.067-.067L19 34.2v-.067h.067V34l.066-.067V33.8l.067-.2v-.134l.067-.133z"
      fill="#EC1C2E"></path>
   <path fill-rule="evenodd" clip-rule="evenodd"
      d="M9.8 35.733H8.467l1.133-6.6H12l.2 3.934 1.667-3.934H16.4l-1.2 6.6h-1.4l.867-4.933H14.6l-2 4.933H11V35l-.067-.8-.066-.867-.067-.933v-.8l-.067-.533V30.8h-.066L9.8 35.733zm35.8-1.067l-.2 1.067h-1.267V35.2l-.067.066-.066.067-.134.067-.066.067-.134.066-.066.067-.134.066-.133.067H43.2l-.134.067h-.2l-.133.067h-.4L42.2 35.8H42l-.134-.067-.133-.066-.133-.067-.134-.133-.133-.067-.067-.067-.066-.133-.067-.067V35l-.067-.133V34.8L41 34.667v-.534l.066-.2v-.2l.067-.133.067-.2.133-.133.067-.134.133-.133.133-.133.134-.067.133-.133.2-.067.133-.067.2-.066.134-.067h.466l.067-.067h.533l.067-.066h.2l.133.066h.467V32.2l.067-.133V32l-.067-.133V31.8l-.067-.133-.066-.067-.134-.067H44.2l-.134-.066h-1.2l-.2.066H42.4l-.134.067h-.133l-.133.067h-.067l-.067.066H41.8l.333-1.2.133-.066h.134l.133-.067h.067l.133-.067h.4l.133-.066H44.4l.133.066h.333L45 30.4l.2.067.133.066.133.067.134.133.133.067.133.133.134.134.066.2.067.133v.6l-.533 2.666z"
      fill="#fff"></path>
   <path fill-rule="evenodd" clip-rule="evenodd" d="M45.4 35.8l.2-1.134h-.067l-.2 1.067h.067v.066z"
      fill="#fff"></path>
   <path fill-rule="evenodd" clip-rule="evenodd"
      d="M44.066 35.733l.067.067H45.4v-.067h-1.334v.067h.067l-.067-.067z" fill="#fff"></path>
   <path fill-rule="evenodd" clip-rule="evenodd" d="M44.133 35.2v-.067l-.067.134v.466h.067v-.6.067z"
      fill="#fff"></path>
   <path fill-rule="evenodd" clip-rule="evenodd"
      d="M42.2 35.867h.666l.2-.067h.134l.133-.067.133-.066.134-.067h.133l.067-.133.133-.067.067-.067.066-.066.067-.067v-.067l-.067.134-.066.066-.134.067-.066.067-.134.066-.133.067H43.4l-.067.067-.133.066H43l-.134.067H42.2v.067zm-1.267-1.534v.067l.066.133v.267l.067.066V35l.067.133.066.067.067.133.067.067.133.133.067.067.133.066.2.067.133.067.2.066V35.8l-.2-.067-.133-.067-.133-.066-.133-.067-.134-.067-.066-.066-.067-.134-.067-.066-.066-.134-.067-.066-.067-.134v-.333L41 34.4v-.067h-.066z"
      fill="#fff"></path>
   <path fill-rule="evenodd" clip-rule="evenodd"
      d="M42.8 32.4h-.2l-.2.067-.134.066-.2.067-.133.067-.133.066-.134.134-.133.133-.133.133-.134.134-.066.133-.067.2-.067.133-.067.2v.2l-.066.2h.066l.067-.2v-.2l.067-.2.066-.133.067-.2.067-.133.133-.134.067-.133.133-.067.134-.133.2-.067.133-.133.133-.067h.2l.133-.066.2-.067zm1-.134h-.4l-.134.067H42.8v.066h.466l.134-.066h.4v-.067zm.733.067v-.067H43.8v.067h.733zm0-.333v.333l.066-.067V32h-.066zm-.6-.533l.133.066h.133l.067.067.067.067.067.066.066.067.067.067V32h.066v-.133l-.066-.067-.067-.133-.066-.067-.067-.067-.133-.066h-.134l-.133-.067v.067z"
      fill="#fff"></path>
   <path fill-rule="evenodd" clip-rule="evenodd"
      d="M41.8 31.733v.067l.066-.067h.067l.133-.066h.067l.133-.067h.267l.133-.067H43l.2-.066h.734L43.8 31.4h-.467l-.133.067h-.534l-.133.066h-.267l-.133.067h-.134l-.066.067h-.067l-.066.066h.066-.066z"
      fill="#fff"></path>
   <path fill-rule="evenodd" clip-rule="evenodd"
      d="M42.133 30.467v.067l-.333 1.2h.066l.334-1.2-.067-.067v.067-.067z" fill="#fff"></path>
   <path fill-rule="evenodd" clip-rule="evenodd"
      d="M44.4 30.267H43l-.134.066H42.6l-.067.067H42.4l-.134.067h-.133l.067.066h.066l.134-.066.133-.067h.2l.133-.067H44.4v-.066zM46.133 32l.066-.2v-.2l-.066-.2-.067-.2-.067-.133-.133-.134-.066-.133-.134-.133-.133-.067-.2-.067-.133-.066-.2-.067-.134-.067-.133-.066H44.4v.066h.266l.2.067.133.067h.134l.2.133.133.067.133.066.134.134.133.133.067.133.066.134.067.133.067.2v.2l-.067.133.067.067z"
      fill="#fff"></path>
   <path fill-rule="evenodd" clip-rule="evenodd"
      d="M45.6 34.666L46.133 32l-.067-.067-.533 2.733h.066z" fill="#fff"></path>
   <path fill-rule="evenodd" clip-rule="evenodd"
      d="M44.333 33.333v-.067h-.067L44.2 33.2H44l-.134.066h-.333l-.067.067h-.2l-.066.067h-.067l-.067.066H43l-.067.067h-.067l-.066.067-.067.066v.067l-.067.067-.066.066v.467l.066.133v.067l.134.067h.066l.067.066h.267l.133-.066h.133l.134-.067h.066l.134-.067.066-.066.067-.067H44l.066-.067.067-.066.067-.067v-.067l.066-.066v-.134l.067-.133v-.4z"
      fill="#FBB231"></path>
   <path fill-rule="evenodd" clip-rule="evenodd"
      d="M54.8 35.067V34.8l.133-.133.066-.067.067-.067.133-.066.134-.067h.266l.134.067.133.066.133.067.067.067.067.133.066.133v.134h-.133V35L56 34.867l-.066-.067-.067-.133-.067-.067-.066-.067h-.467l-.133.067-.067.067L55 34.8v.067l-.066.133v.067H54.8z"
      fill="#fff"></path>
   <path fill-rule="evenodd" clip-rule="evenodd"
      d="M55.266 35.066V34.8h.467v.133h.067l-.067.067v.066h-.2.066l.067-.066v-.133h-.333v.2h-.067z"
      fill="#fff"></path>
   <path fill-rule="evenodd" clip-rule="evenodd"
      d="M54.8 35.066v.334l.133.133.066.067.067.066.133.067.134.067h.266l.134-.067.133-.067L56 35.6l.067-.067.067-.133.066-.134v-.2h-.133v.134l-.067.133-.066.067-.067.133-.067.067-.066.066h-.467l-.133-.066-.067-.067L55 35.4v-.067l-.066-.133v-.134H54.8z"
      fill="#fff"></path>
   <path fill-rule="evenodd" clip-rule="evenodd"
      d="M55.266 35.066v.334h.067v-.267h.133l.2.267h.067l-.134-.267h.067l.067-.067h-.467zm-9.333.667H47.4l.466-2.866.067-.067v-.133l.066-.134v-.066l.067-.134.067-.133.066-.067.067-.133.134-.067.066-.066.133-.067.134-.067.133-.066L49 31.6h.534l.2-1.333-.133.066h-.267l-.133.067h-.067l-.134.067-.066.066-.133.067-.067.067-.067.066-.133.067-.067.067L48.4 31l-.067.067-.067.066-.066.134.133-.934h-1.4l-1 5.4zm-13.4 0H34l.466-2.866.067-.067v-.133l.067-.134v-.066l.066-.134v-.066l.067-.067.067-.133.133-.067.067-.067.133-.066.067-.067h.2l.133-.067h.2l.2-.066v.066h.133v-.2l.067-.066v-.134l.067-.2.066-.133v-.133l.067-.067.067-.133V30.6l.066-.067.067-.133.067-.067h-.134l-.066-.066h-.067l-.133.066h-.267l-.133.067h-.134l-.066.067-.134.066-.066.067-.067.067-.133.066-.067.067-.067.067-.066.066-.067.134-.067.066-.066.134.133-.934h-1.4l-1 5.4z"
      fill="#fff"></path>
   <path fill-rule="evenodd" clip-rule="evenodd"
      d="M54.8 41.066v-.133l.133-.134.066-.066.067-.067.133-.067.134-.066h.266l.134.066.133.067.133.067.067.066.067.134.066.133h-.133L56 40.999l-.066-.133-.067-.067-.067-.066-.066-.067H55.6l-.133-.067-.067.067h-.133l-.133.067-.067.066-.067.067v.133l-.066.067H54.8z"
      fill="#FBB231"></path>
   <path fill-rule="evenodd" clip-rule="evenodd"
      d="M55.266 41.066v-.133h.467v.133h.067-.134V41h-.333v.066h-.067zm-.466.134v-.134h.133v.134h-.134zm.466 0v-.134h.067v.134h.266v-.067h.067v-.067h.134l-.067.067v.067h-.467zm.8 0v-.134h.133v.134h-.133zm-1.266 0v.266l.133.134.066.133.067.067.133.066.134.067h.266l.134-.067.133-.066.133-.067.067-.133.067-.134.066-.133V41.2h-.133v.133l-.067.133-.066.067-.067.067-.067.133h-.066l-.134.067h-.2l-.133-.067h-.133l-.067-.133-.067-.067v-.067l-.066-.133V41.2h-.134z"
      fill="#FBB231"></path>
   <path fill-rule="evenodd" clip-rule="evenodd"
      d="M55.266 41.2v.266h.067v-.2h.133l.2.2h.067l-.134-.2.067-.066h.067-.467z" fill="#FBB231">
   </path>
   <path fill-rule="evenodd" clip-rule="evenodd"
      d="M32.733 31.933l-.067-.333-.066-.267-.134-.2-.133-.2-.133-.2-.134-.133-.2-.134-.2-.066-.2-.067-.2-.067-.2-.066h-.8l-.333.066-.333.067-.267.133-.267.134-.2.2-.2.2-.133.2-.133.2-.134.2-.066.2-.067.2-.067.2-.066.2v1.133l.066.333.067.267.133.267.134.2.2.2.2.2.2.133.2.133.266.067.267.067.267.066.266.067h2l.067-.067.067-.066.2-1.267-.134.067-.133.066-.133.067-.134.067-.133.066h-1.6L30.2 34.4l-.134-.067-.066-.067-.067-.066-.067-.067-.066-.067-.067-.066-.067-.067-.066-.067-.067-.066-.067-.067v-.267h3.267v-.333l.067-.4.066-.4-.133-.4zm-1.4.467h-1.867v-.334l.067-.133.067-.067.066-.066.067-.067.067-.067.066-.066.067-.067.067-.067.066-.066.067-.067h.533l.067.067.067.066.066.067.067.067.067.066.066.067.067.067.067.066v.4l.133.134z"
      fill="#fff"></path>
</svg>