<?xml version="1.0" encoding="iso-8859-1"?>
<!-- Generator: Adobe Illustrator 19.0.0, SVG Export Plug-In . SVG Version: 6.00 Build 0)  -->
<svg version="1.1" id="Capa_1" xmlns="http://www.w3.org/2000/svg" xmlns:xlink="http://www.w3.org/1999/xlink" x="0px" y="0px"
	 viewBox="0 0 511.99 511.99" style="enable-background:new 0 0 511.99 511.99;" xml:space="preserve">
<g>
	<g>
		<g>
			<path d="M138.667,298.662h-128C4.779,298.662,0,303.44,0,309.328s4.779,10.667,10.667,10.667h128
				c5.888,0,10.667-4.779,10.667-10.667S144.555,298.662,138.667,298.662z"/>
			<path d="M21.333,266.662c0,5.888,4.779,10.667,10.667,10.667h85.333c5.888,0,10.667-4.779,10.667-10.667
				s-4.779-10.667-10.667-10.667H32C26.112,255.995,21.333,260.774,21.333,266.662z"/>
			<path d="M10.667,234.662H96c5.888,0,10.667-4.779,10.667-10.667S101.888,213.328,96,213.328H10.667
				C4.779,213.328,0,218.107,0,223.995S4.779,234.662,10.667,234.662z"/>
			<path d="M510.101,153.915c-2.005-2.859-5.269-4.587-8.768-4.587H138.731l-32.896-78.784c-1.643-3.968-5.525-6.549-9.835-6.549H32
				c-5.888,0-10.667,4.779-10.667,10.667S26.112,85.328,32,85.328h56.896l32.875,78.72c0,0.021,0,0.043,0,0.064l71.04,170.667
				c1.664,3.968,7.04,6.549,11.349,6.549h233.173c4.437,0,8.427-2.752,9.984-6.912l64-170.667
				C512.533,160.464,512.085,156.795,510.101,153.915z M429.931,319.995h-220.16l-62.144-149.333h338.304L429.931,319.995z"/>
			<path d="M234.667,362.662c-23.531,0-42.667,19.136-42.667,42.667c0,23.531,19.136,42.667,42.667,42.667
				c23.531,0,42.667-19.136,42.667-42.667C277.333,381.798,258.197,362.662,234.667,362.662z M234.667,426.662
				c-11.776,0-21.333-9.557-21.333-21.333s9.557-21.333,21.333-21.333S256,393.552,256,405.328S246.443,426.662,234.667,426.662z"/>
			<path d="M405.333,362.662c-23.531,0-42.667,19.136-42.667,42.667c0,23.531,19.136,42.667,42.667,42.667
				c23.531,0,42.667-19.136,42.667-42.667C448,381.798,428.864,362.662,405.333,362.662z M405.333,426.662
				c-11.776,0-21.333-9.557-21.333-21.333s9.557-21.333,21.333-21.333s21.333,9.557,21.333,21.333S417.109,426.662,405.333,426.662z
				"/>
		</g>
	</g>
</g>
<g>
</g>
<g>
</g>
<g>
</g>
<g>
</g>
<g>
</g>
<g>
</g>
<g>
</g>
<g>
</g>
<g>
</g>
<g>
</g>
<g>
</g>
<g>
</g>
<g>
</g>
<g>
</g>
<g>
</g>
</svg>
