<svg width="512" height="496" viewBox="0 0 512 496" 
   xmlns="http://www.w3.org/2000/svg">
   <path id='inside' d="M321.625 2.897L509.358 182.097C511.046 183.706 512 185.935 512 188.268C512 190.602 511.046 192.831 509.358 194.439L321.625 373.639C319.146 376.002 315.508 376.656 312.375 375.314C309.237 373.968 307.2 370.885 307.2 367.468V274.656C184.796 283.81 77.471 358.056 25.666 470.119L16.283 490.502C14.87 493.577 11.812 495.469 8.537 495.469C7.929 495.469 7.316 495.406 6.708 495.273C2.792 494.414 0 490.943 0 486.935V435.735C0 261.243 134.288 117.018 307.2 103.889V9.068C307.2 5.651 309.237 2.568 312.375 1.222C315.504 -0.124005 319.146 0.529995 321.625 2.897Z" />
   <path d="M509.358 182.097L321.625 2.897C319.146 0.529995 315.504 -0.124005 312.375 1.222C309.237 2.568 307.2 5.651 307.2 9.068V103.889C134.288 117.018 0 261.243 0 435.735V486.935C0 490.943 2.792 494.414 6.708 495.273C7.316 495.406 7.929 495.469 8.537 495.469C11.812 495.469 14.87 493.577 16.283 490.502L25.666 470.119C77.471 358.056 184.796 283.81 307.2 274.656V367.468C307.2 370.885 309.237 373.968 312.375 375.314C315.508 376.656 319.146 376.002 321.625 373.639L509.358 194.439C511.046 192.831 512 190.602 512 188.268C512 185.935 511.046 183.706 509.358 182.097ZM324.267 347.527V265.581C324.267 263.248 323.309 261.014 321.621 259.402C319.929 257.794 317.629 256.998 315.321 257.056C188.079 263.231 75.188 336.256 17.067 448.864V435.735C17.067 267.614 148.45 129.11 316.175 120.414C320.708 120.181 324.267 116.435 324.267 111.893V29.01L491.109 188.268L324.267 347.527Z" />
</svg>
