<svg height="512pt" viewBox="0 -55 512.0001 512" width="512pt" 
   xmlns="http://www.w3.org/2000/svg">
   <path d="m477.195312 318.085938-57.632812-36.109376c-5.976562-3.15625-9.785156-9.292968-9.960938-16.050781v-23.441406c14.6875-14.976563 25.472657-33.335937 31.40625-53.457031l.265626-.324219c6.976562-5.800781 11.003906-14.402344 10.992187-23.472656v-29.4375c-.21875-7.429688-3.253906-14.5-8.492187-19.777344l-.058594-39.625c-1.597656-26.414063-23.277344-76.3632812-93.847656-76.3632812-16.125-.2890628-32.121094 2.9492182-46.863282 9.4843752-14.796875-6.53125-30.832031-9.765625-47.003906-9.4843752-16.09375-.2851558-32.054688 2.9375002-46.773438 9.4453122-14.8125-6.574218-30.890624-9.800781-47.09375-9.4453122-87.53125 0-93.628906 73.0898442-93.867187 76.8007812v39.074219l-.007813.007812c-5.246093 5.308594-8.292968 12.40625-8.523437 19.867188v29.484375c-.015625 9.113281 4.070313 17.753906 11.121094 23.53125l.066406.058593c5.960937 20.1875 16.769531 38.613282 31.476563 53.675782v23.375c-.230469 6.925781-4.207032 13.179687-10.382813 16.332031l-56.757813 35.609375c-21.742187 11.839844-35.2695308 34.625-35.257812 59.382812v6.800782c.0117188 9.421875 7.644531 17.054687 17.066406 17.066406h477.867188c9.421875-.011719 17.054687-7.644531 17.066406-17.066406v-6.828125c.042969-24.574219-13.292969-47.226563-34.804688-59.113281zm-280.929687 65.941406h-179.199219v-6.800782c.042969-18.683593 10.339844-35.835937 26.808594-44.65625l56.765625-35.609374c11.484375-6.132813 18.703125-18.042969 18.824219-31.058594v-26.84375c0-2.21875-.867188-4.351563-2.410156-5.949219l-2.414063-2.484375c-12.6875-12.941406-22.03125-28.78125-27.21875-46.148438l-.707031-2.660156c-.457032-1.730468-1.445313-3.273437-2.832032-4.40625l-2.1875-1.800781c-3.101562-2.539063-4.898437-6.339844-4.894531-10.347656v-29.484375c.296875-3.175782 1.726563-6.132813 4.03125-8.335938l2.246094-2.441406c1.449219-1.570312 2.253906-3.632812 2.253906-5.773438l-.019531-41.8125c.429688-6.171874 6.238281-60.320312 76.820312-60.320312 71.859376 0 76.648438 57.914062 76.800782 59.800781v42.332031c0 2.140626.804687 4.199219 2.25 5.773438l2.246094 2.441406c2.296874 2.210938 3.726562 5.164063 4.035156 8.335938v29.484375c.011718 4.015625-1.789063 7.820312-4.898438 10.363281l-2.179687 1.792969c-1.375 1.132812-2.363281 2.667969-2.824219 4.390625l-.707031 2.660156c-5.195313 17.375-14.546875 33.222656-27.238281 46.175781l-2.410157 2.480469c-1.542969 1.59375-2.40625 3.726562-2.40625 5.941406v26.835938c.167969 12.816406 7.179688 24.566406 18.382813 30.800781l57.652344 36.125c16.253906 8.855469 26.371093 25.886719 26.363281 44.398437v6.800782zm128 0v-6.800782c.054687-24.582031-13.285156-47.242187-34.808594-59.125l-57.65625-36.125c-5.964843-3.175781-9.761719-9.320312-9.933593-16.074218v-23.375c14.703124-15.0625 25.507812-33.484375 31.480468-53.667969l.054688-.050781c7.058594-5.777344 11.148437-14.425782 11.132812-23.546875v-29.484375c-.269531-7.457032-3.3125-14.546875-8.535156-19.875l-.019531-39.59375c-2.320313-21.382813-12.535157-41.132813-28.644531-55.382813 9.332031-2.605469 18.976562-3.898437 28.664062-3.832031 14.878906-.421875 29.636719 2.75 43.023438 9.25 18.800781 10.375 31.394531 29.226562 33.777343 50.566406v42.328125c0 2.097657.773438 4.125 2.175781 5.691407l2.363282 2.632812c2.292968 2.160156 3.714844 5.089844 3.992187 8.230469v29.4375c.007813 4-1.769531 7.792969-4.84375 10.351562l-2.234375 1.859375c-1.308594 1.085938-2.265625 2.542969-2.738281 4.179688l-.820313 2.84375c-5.167968 17.390625-14.523437 33.246094-27.25 46.179687l-2.390624 2.472657c-1.53125 1.59375-2.386719 3.71875-2.386719 5.929687v26.878906c.175781 12.820313 7.203125 24.566407 18.417969 30.78125l57.617187 36.097657c16.25 8.859374 26.363281 25.886718 26.363281 44.394531v6.828125zm170.667969 0h-76.800782v-6.828125c.042969-24.574219-13.292968-47.226563-34.804687-59.117188l-57.632813-36.105469c-5.976562-3.15625-9.785156-9.292968-9.960937-16.050781v-23.441406c14.6875-14.976563 25.472656-33.335937 31.40625-53.457031l.269531-.324219c6.972656-5.800781 11-14.402344 10.988282-23.472656v-29.4375c-.21875-7.429688-3.253907-14.5-8.488282-19.777344l-.074218-39.785156c-2.296876-21.367188-12.507813-41.097657-28.628907-55.304688 9.328125-2.605469 18.976563-3.894531 28.660157-3.832031 72.324218 0 76.667968 57.867188 76.800781 59.816406v42.328125c0 2.097657.773437 4.125 2.175781 5.691407l2.363281 2.632812c2.292969 2.160156 3.714844 5.089844 3.992188 8.230469v29.4375c.003906 4-1.769531 7.792969-4.84375 10.351562l-2.234375 1.859375c-1.3125 1.085938-2.265625 2.542969-2.738282 4.179688l-.820312 2.84375c-5.167969 17.390625-14.527344 33.246094-27.25 46.179687l-2.390625 2.472657c-1.53125 1.59375-2.386719 3.71875-2.386719 5.929687v26.878906c.175782 12.820313 7.203125 24.566407 18.417969 30.78125l57.617187 36.097657c16.25 8.859374 26.359376 25.886718 26.363282 44.394531zm0 0" />
</svg>