<svg width="405" height="641" viewBox="0 0 405 641" 
   xmlns="http://www.w3.org/2000/svg">
   <path d="M202.64 0.979492C91.2957 0.979492 0.70459 91.7189 0.70459 203.258V212.624H127.378V203.258C127.378 161.674 161.138 127.844 202.64 127.844C244.142 127.844 277.91 161.674 277.91 203.258C277.91 244.843 244.142 278.673 202.64 278.673H139.303V320.667H158.035V297.405H202.64C254.472 297.405 296.642 255.169 296.642 203.258C296.642 151.344 254.472 109.112 202.64 109.112C153.969 109.112 113.813 146.353 109.106 193.892H19.6704C24.5524 97.0145 104.755 19.7112 202.64 19.7112C303.662 19.7112 385.848 102.049 385.848 203.258C385.848 284.261 331.623 356.725 253.977 379.473L247.245 381.444V448.921H158.035V320.667H139.303V467.652H265.977V395.34C304.334 382.591 338.714 358.013 363.362 325.588C390.324 290.13 404.579 247.828 404.579 203.258C404.579 91.7189 313.988 0.979492 202.64 0.979492Z" />
   <path d="M139.303 640.321H265.977V605.176H247.245V621.59H158.035V532.384H247.245V605.176H265.977V513.652H139.303V640.321Z" />
</svg>
