<svg height="512" viewBox="0 0 57 60" width="512" xmlns="http://www.w3.org/2000/svg">
   <path id="Shape"
      d="m32.06 0h-28c-2.209139 0-4 1.790861-4 4v46.985.015.029 4.971c0 2.209139 1.790861 4 4 4h28c2.209139 0 4-1.790861 4-4v-20.5c6.4817685 1.6783742 13.3232597-.8553399 17.1482431-6.3507711 3.8249834-5.4954313 3.8249834-12.7910265 0-18.2864578-3.8249834-5.49543125-10.6664746-8.02914531-17.1482431-6.3507711v-.512c0-2.209139-1.790861-4-4-4zm-6.312 2-1.282 1.368c-.3785181.40264083-.9063743.63129411-1.459.632h-9.9c-.5526257-.00070589-1.0804819-.22935917-1.459-.632l-1.283-1.368zm-21.688 0h3.563l2.565 2.735c.7566537.80594892 1.8125242 1.26368581 2.918 1.265h9.9c1.1050785-.00224226 2.1604762-.45941249 2.918-1.264l2.566-2.736h3.57c1.1045695 0 2 .8954305 2 2v1.156c-6.0684042 2.43134742-10.0501875 8.3066547-10.06 14.844-.0107452 3.2419823.973554 6.4091919 2.82 9.074l-2.048 5.637c-.2251351.6124901-.1373066 1.296298.2353044 1.8320134.3726109.5357154.9831423.8559631 1.6356956.8579866.2149836.0006481.4286856-.0331121.633-.1l6.784-2.264v15.95.015c0 1.1045695-.8954305 2-2 2h-28c-1.0933427.0001149-1.98414654-.8777722-2-1.971v-47.031c0-1.1045695.8954305-2 2-2zm28 56h-28c-1.1045695 0-2-.8954305-2-2v-1.555c.60521484.3601135 1.2957585.5517393 2 .555h28c.7044856-.0044112 1.3949858-.1970608 2-.558v1.558c0 1.1045695-.8954305 2-2 2zm21.94-38c-.0082673 7.7285595-6.2714405 13.9917327-14 14-1.8141495.0052984-3.6116172-.34638-5.29-1.035-.2228103-.092125-.4714032-.1006482-.7-.024l-7.361 2.459 2.231-6.14c.1148451-.3158242.0633764-.6682156-.137-.938-1.7912581-2.4038409-2.7538252-5.3241776-2.743-8.322 0-7.7319865 6.2680135-14 14-14s14 6.2680135 14 14z" />
   <path id="Shape"
      d="m29 20c0 1.6568542 1.3431458 3 3 3s3-1.3431458 3-3-1.3431458-3-3-3-3 1.3431458-3 3zm3-1c.5522847 0 1 .4477153 1 1s-.4477153 1-1 1-1-.4477153-1-1 .4477153-1 1-1z" />
   <path id="Shape"
      d="m40 23c1.6568542 0 3-1.3431458 3-3s-1.3431458-3-3-3-3 1.3431458-3 3 1.3431458 3 3 3zm0-4c.5522847 0 1 .4477153 1 1s-.4477153 1-1 1-1-.4477153-1-1 .4477153-1 1-1z" />
   <path id="Shape"
      d="m48 23c1.6568542 0 3-1.3431458 3-3s-1.3431458-3-3-3-3 1.3431458-3 3 1.3431458 3 3 3zm0-4c.5522847 0 1 .4477153 1 1s-.4477153 1-1 1-1-.4477153-1-1 .4477153-1 1-1z" />
</svg>